<svg xmlns="http://www.w3.org/2000/svg" width="520" height="220" viewBox="0 0 520 220">
<rect width="100%" height="100%" fill="#f8fafc"/>
<text x="10" y="18" font-size="12" font-family="sans-serif" font-weight="bold">C — more terminals (n=12)</text>
<line x1="46.8" y1="166.3" x2="280.0" y2="174.7" stroke="#1e293b" stroke-width="2"/>
<line x1="89.2" y1="183.2" x2="280.0" y2="174.7" stroke="#1e293b" stroke-width="2"/>
<line x1="131.6" y1="166.3" x2="280.0" y2="174.7" stroke="#1e293b" stroke-width="2"/>
<line x1="174.0" y1="183.2" x2="280.0" y2="174.7" stroke="#1e293b" stroke-width="2"/>
<line x1="216.4" y1="166.3" x2="280.0" y2="174.7" stroke="#1e293b" stroke-width="2"/>
<line x1="258.8" y1="183.2" x2="280.0" y2="174.7" stroke="#1e293b" stroke-width="2"/>
<line x1="301.2" y1="166.3" x2="280.0" y2="174.7" stroke="#1e293b" stroke-width="2"/>
<line x1="343.6" y1="183.2" x2="280.0" y2="174.7" stroke="#1e293b" stroke-width="2"/>
<line x1="386.0" y1="166.3" x2="280.0" y2="174.7" stroke="#1e293b" stroke-width="2"/>
<line x1="428.4" y1="183.2" x2="280.0" y2="174.7" stroke="#1e293b" stroke-width="2"/>
<line x1="470.8" y1="166.3" x2="280.0" y2="174.7" stroke="#1e293b" stroke-width="2"/>
<line x1="513.2" y1="183.2" x2="280.0" y2="174.7" stroke="#1e293b" stroke-width="2"/>
<circle cx="280.0" cy="174.7" r="5" fill="#22c55e"/>
<circle cx="46.8" cy="166.3" r="6" fill="#dc2626"/>
<circle cx="89.2" cy="183.2" r="4" fill="#2563eb"/>
<circle cx="131.6" cy="166.3" r="4" fill="#2563eb"/>
<circle cx="174.0" cy="183.2" r="4" fill="#2563eb"/>
<circle cx="216.4" cy="166.3" r="4" fill="#2563eb"/>
<circle cx="258.8" cy="183.2" r="4" fill="#2563eb"/>
<circle cx="301.2" cy="166.3" r="4" fill="#2563eb"/>
<circle cx="343.6" cy="183.2" r="4" fill="#2563eb"/>
<circle cx="386.0" cy="166.3" r="4" fill="#2563eb"/>
<circle cx="428.4" cy="183.2" r="4" fill="#2563eb"/>
<circle cx="470.8" cy="166.3" r="4" fill="#2563eb"/>
<circle cx="513.2" cy="183.2" r="6" fill="#b91c1c"/>
<text x="10" y="212" font-size="10" font-family="monospace" fill="#334155">St=1  edges=12  tree=180.7km  total=180.7km  smt_heuristic_mst</text>
<text x="280" y="32" font-size="9" fill="#64748b">● start/end  ● intermediate  ● steiner  ─ tree</text>
</svg>