<svg xmlns="http://www.w3.org/2000/svg" width="520" height="180">
<text x="10" y="16" font-size="12" font-weight="bold">steiner points</text>
<rect x="30" y="30" width="48" height="120" fill="#22c55e"/>
<text x="54.0" y="165" text-anchor="middle" font-size="9">A</text>
<text x="54.0" y="25" text-anchor="middle" font-size="8">1</text>
<rect x="86" y="30" width="48" height="120" fill="#22c55e"/>
<text x="110.0" y="165" text-anchor="middle" font-size="9">B</text>
<text x="110.0" y="25" text-anchor="middle" font-size="8">1</text>
<rect x="142" y="30" width="48" height="120" fill="#22c55e"/>
<text x="166.0" y="165" text-anchor="middle" font-size="9">C</text>
<text x="166.0" y="25" text-anchor="middle" font-size="8">1</text>
<rect x="198" y="30" width="48" height="120" fill="#22c55e"/>
<text x="222.0" y="165" text-anchor="middle" font-size="9">D</text>
<text x="222.0" y="25" text-anchor="middle" font-size="8">1</text>
<rect x="254" y="30" width="48" height="120" fill="#22c55e"/>
<text x="278.0" y="165" text-anchor="middle" font-size="9">E</text>
<text x="278.0" y="25" text-anchor="middle" font-size="8">1</text>
<rect x="310" y="30" width="48" height="120" fill="#22c55e"/>
<text x="334.0" y="165" text-anchor="middle" font-size="9">F</text>
<text x="334.0" y="25" text-anchor="middle" font-size="8">1</text>
<rect x="366" y="30" width="48" height="120" fill="#22c55e"/>
<text x="390.0" y="165" text-anchor="middle" font-size="9">G</text>
<text x="390.0" y="25" text-anchor="middle" font-size="8">1</text>
<rect x="422" y="30" width="48" height="120" fill="#22c55e"/>
<text x="446.0" y="165" text-anchor="middle" font-size="9">H</text>
<text x="446.0" y="25" text-anchor="middle" font-size="8">1</text>
</svg><svg xmlns="http://www.w3.org/2000/svg" width="520" height="180">
<text x="10" y="16" font-size="12" font-weight="bold">total tree length (km)</text>
<rect x="30" y="107" width="48" height="43" fill="#2563eb"/>
<text x="54.0" y="165" text-anchor="middle" font-size="9">A</text>
<text x="54.0" y="102" text-anchor="middle" font-size="8">101km</text>
<rect x="86" y="131" width="48" height="19" fill="#2563eb"/>
<text x="110.0" y="165" text-anchor="middle" font-size="9">B</text>
<text x="110.0" y="126" text-anchor="middle" font-size="8">46km</text>
<rect x="142" y="73" width="48" height="77" fill="#2563eb"/>
<text x="166.0" y="165" text-anchor="middle" font-size="9">C</text>
<text x="166.0" y="68" text-anchor="middle" font-size="8">181km</text>
<rect x="198" y="104" width="48" height="46" fill="#2563eb"/>
<text x="222.0" y="165" text-anchor="middle" font-size="9">D</text>
<text x="222.0" y="99" text-anchor="middle" font-size="8">109km</text>
<rect x="254" y="105" width="48" height="45" fill="#2563eb"/>
<text x="278.0" y="165" text-anchor="middle" font-size="9">E</text>
<text x="278.0" y="100" text-anchor="middle" font-size="8">106km</text>
<rect x="310" y="30" width="48" height="120" fill="#2563eb"/>
<text x="334.0" y="165" text-anchor="middle" font-size="9">F</text>
<text x="334.0" y="25" text-anchor="middle" font-size="8">282km</text>
<rect x="366" y="105" width="48" height="45" fill="#2563eb"/>
<text x="390.0" y="165" text-anchor="middle" font-size="9">G</text>
<text x="390.0" y="100" text-anchor="middle" font-size="8">106km</text>
<rect x="422" y="132" width="48" height="18" fill="#2563eb"/>
<text x="446.0" y="165" text-anchor="middle" font-size="9">H</text>
<text x="446.0" y="127" text-anchor="middle" font-size="8">42km</text>
</svg>