<svg xmlns="http://www.w3.org/2000/svg" width="520" height="220" viewBox="0 0 520 220">
<rect width="100%" height="100%" fill="#f8fafc"/>
<text x="10" y="18" font-size="12" font-family="sans-serif" font-weight="bold">D — middle terminal +8 km off route</text>
<line x1="49.2" y1="157.7" x2="280.0" y2="157.7" stroke="#1e293b" stroke-width="2"/>
<line x1="106.9" y1="180.8" x2="280.0" y2="157.7" stroke="#1e293b" stroke-width="2"/>
<line x1="164.6" y1="157.7" x2="280.0" y2="157.7" stroke="#1e293b" stroke-width="2"/>
<line x1="222.3" y1="180.8" x2="280.0" y2="157.7" stroke="#1e293b" stroke-width="2"/>
<line x1="280.0" y1="65.4" x2="280.0" y2="157.7" stroke="#1e293b" stroke-width="2"/>
<line x1="337.7" y1="180.8" x2="280.0" y2="157.7" stroke="#1e293b" stroke-width="2"/>
<line x1="395.4" y1="157.7" x2="280.0" y2="157.7" stroke="#1e293b" stroke-width="2"/>
<line x1="453.1" y1="180.8" x2="280.0" y2="157.7" stroke="#1e293b" stroke-width="2"/>
<line x1="510.8" y1="157.7" x2="280.0" y2="157.7" stroke="#1e293b" stroke-width="2"/>
<circle cx="280.0" cy="157.7" r="5" fill="#22c55e"/>
<circle cx="49.2" cy="157.7" r="6" fill="#dc2626"/>
<circle cx="106.9" cy="180.8" r="4" fill="#2563eb"/>
<circle cx="164.6" cy="157.7" r="4" fill="#2563eb"/>
<circle cx="222.3" cy="180.8" r="4" fill="#2563eb"/>
<circle cx="280.0" cy="65.4" r="4" fill="#2563eb"/>
<circle cx="337.7" cy="180.8" r="4" fill="#2563eb"/>
<circle cx="395.4" cy="157.7" r="4" fill="#2563eb"/>
<circle cx="453.1" cy="180.8" r="4" fill="#2563eb"/>
<circle cx="510.8" cy="157.7" r="6" fill="#b91c1c"/>
<text x="10" y="212" font-size="10" font-family="monospace" fill="#334155">St=1  edges=9  tree=109.0km  total=109.0km  smt_heuristic_mst</text>
<text x="280" y="32" font-size="9" fill="#64748b">● start/end  ● intermediate  ● steiner  ─ tree</text>
</svg>