<svg xmlns="http://www.w3.org/2000/svg" width="520" height="220" viewBox="0 0 520 220">
<rect width="100%" height="100%" fill="#f8fafc"/>
<text x="10" y="18" font-size="12" font-family="sans-serif" font-weight="bold">F — n=15 (heuristic SMT warning)</text>
<line x1="45.4" y1="171.2" x2="280.0" y2="177.5" stroke="#1e293b" stroke-width="2"/>
<line x1="78.9" y1="184.6" x2="280.0" y2="177.5" stroke="#1e293b" stroke-width="2"/>
<line x1="112.4" y1="171.2" x2="280.0" y2="177.5" stroke="#1e293b" stroke-width="2"/>
<line x1="145.9" y1="184.6" x2="280.0" y2="177.5" stroke="#1e293b" stroke-width="2"/>
<line x1="179.4" y1="171.2" x2="280.0" y2="177.5" stroke="#1e293b" stroke-width="2"/>
<line x1="213.0" y1="184.6" x2="280.0" y2="177.5" stroke="#1e293b" stroke-width="2"/>
<line x1="246.5" y1="171.2" x2="280.0" y2="177.5" stroke="#1e293b" stroke-width="2"/>
<line x1="280.0" y1="184.6" x2="280.0" y2="177.5" stroke="#1e293b" stroke-width="2"/>
<line x1="313.5" y1="171.2" x2="280.0" y2="177.5" stroke="#1e293b" stroke-width="2"/>
<line x1="347.0" y1="184.6" x2="280.0" y2="177.5" stroke="#1e293b" stroke-width="2"/>
<line x1="380.6" y1="171.2" x2="280.0" y2="177.5" stroke="#1e293b" stroke-width="2"/>
<line x1="414.1" y1="184.6" x2="280.0" y2="177.5" stroke="#1e293b" stroke-width="2"/>
<line x1="447.6" y1="171.2" x2="280.0" y2="177.5" stroke="#1e293b" stroke-width="2"/>
<line x1="481.1" y1="184.6" x2="280.0" y2="177.5" stroke="#1e293b" stroke-width="2"/>
<line x1="514.6" y1="171.2" x2="280.0" y2="177.5" stroke="#1e293b" stroke-width="2"/>
<circle cx="280.0" cy="177.5" r="5" fill="#22c55e"/>
<circle cx="45.4" cy="171.2" r="6" fill="#dc2626"/>
<circle cx="78.9" cy="184.6" r="4" fill="#2563eb"/>
<circle cx="112.4" cy="171.2" r="4" fill="#2563eb"/>
<circle cx="145.9" cy="184.6" r="4" fill="#2563eb"/>
<circle cx="179.4" cy="171.2" r="4" fill="#2563eb"/>
<circle cx="213.0" cy="184.6" r="4" fill="#2563eb"/>
<circle cx="246.5" cy="171.2" r="4" fill="#2563eb"/>
<circle cx="280.0" cy="184.6" r="4" fill="#2563eb"/>
<circle cx="313.5" cy="171.2" r="4" fill="#2563eb"/>
<circle cx="347.0" cy="184.6" r="4" fill="#2563eb"/>
<circle cx="380.6" cy="171.2" r="4" fill="#2563eb"/>
<circle cx="414.1" cy="184.6" r="4" fill="#2563eb"/>
<circle cx="447.6" cy="171.2" r="4" fill="#2563eb"/>
<circle cx="481.1" cy="184.6" r="4" fill="#2563eb"/>
<circle cx="514.6" cy="171.2" r="6" fill="#b91c1c"/>
<text x="10" y="212" font-size="10" font-family="monospace" fill="#334155">St=1  edges=15  tree=281.6km  total=281.6km  smt_heuristic_mst</text>
<text x="280" y="32" font-size="9" fill="#64748b">● start/end  ● intermediate  ● steiner  ─ tree</text>
</svg>