<svg xmlns="http://www.w3.org/2000/svg" width="520" height="220" viewBox="0 0 520 220">
<rect width="100%" height="100%" fill="#f8fafc"/>
<text x="10" y="18" font-size="12" font-family="sans-serif" font-weight="bold">H — segment spacing 2 km</text>
<line x1="61.8" y1="113.6" x2="280.0" y2="137.9" stroke="#1e293b" stroke-width="2"/>
<line x1="116.4" y1="168.2" x2="280.0" y2="137.9" stroke="#1e293b" stroke-width="2"/>
<line x1="170.9" y1="113.6" x2="280.0" y2="137.9" stroke="#1e293b" stroke-width="2"/>
<line x1="225.5" y1="168.2" x2="280.0" y2="137.9" stroke="#1e293b" stroke-width="2"/>
<line x1="280.0" y1="113.6" x2="280.0" y2="137.9" stroke="#1e293b" stroke-width="2"/>
<line x1="334.5" y1="168.2" x2="280.0" y2="137.9" stroke="#1e293b" stroke-width="2"/>
<line x1="389.1" y1="113.6" x2="280.0" y2="137.9" stroke="#1e293b" stroke-width="2"/>
<line x1="443.6" y1="168.2" x2="280.0" y2="137.9" stroke="#1e293b" stroke-width="2"/>
<line x1="498.2" y1="113.6" x2="280.0" y2="137.9" stroke="#1e293b" stroke-width="2"/>
<circle cx="280.0" cy="137.9" r="5" fill="#22c55e"/>
<circle cx="61.8" cy="113.6" r="6" fill="#dc2626"/>
<circle cx="116.4" cy="168.2" r="4" fill="#2563eb"/>
<circle cx="170.9" cy="113.6" r="4" fill="#2563eb"/>
<circle cx="225.5" cy="168.2" r="4" fill="#2563eb"/>
<circle cx="280.0" cy="113.6" r="4" fill="#2563eb"/>
<circle cx="334.5" cy="168.2" r="4" fill="#2563eb"/>
<circle cx="389.1" cy="113.6" r="4" fill="#2563eb"/>
<circle cx="443.6" cy="168.2" r="4" fill="#2563eb"/>
<circle cx="498.2" cy="113.6" r="6" fill="#b91c1c"/>
<text x="10" y="212" font-size="10" font-family="monospace" fill="#334155">St=1  edges=9  tree=42.0km  total=42.0km  smt_heuristic_mst</text>
<text x="280" y="32" font-size="9" fill="#64748b">● start/end  ● intermediate  ● steiner  ─ tree</text>
</svg>