<svg xmlns="http://www.w3.org/2000/svg" width="520" height="220" viewBox="0 0 520 220">
<rect width="100%" height="100%" fill="#f8fafc"/>
<text x="10" y="18" font-size="12" font-family="sans-serif" font-weight="bold">S04 — St=4 (2 clusters x2 Steiner)</text>
<line x1="58.7" y1="138.6" x2="218.8" y2="155.0" stroke="#1e293b" stroke-width="2"/>
<line x1="58.7" y1="171.3" x2="218.8" y2="155.0" stroke="#1e293b" stroke-width="2"/>
<line x1="79.7" y1="138.6" x2="221.0" y2="155.0" stroke="#1e293b" stroke-width="2"/>
<line x1="79.7" y1="171.3" x2="221.0" y2="155.0" stroke="#1e293b" stroke-width="2"/>
<line x1="218.8" y1="155.0" x2="221.0" y2="155.0" stroke="#1e293b" stroke-width="2"/>
<line x1="339.0" y1="171.3" x2="499.2" y2="155.0" stroke="#1e293b" stroke-width="2"/>
<line x1="339.0" y1="138.6" x2="499.2" y2="155.0" stroke="#1e293b" stroke-width="2"/>
<line x1="360.1" y1="171.3" x2="501.3" y2="155.0" stroke="#1e293b" stroke-width="2"/>
<line x1="360.1" y1="138.6" x2="501.3" y2="155.0" stroke="#1e293b" stroke-width="2"/>
<line x1="499.2" y1="155.0" x2="501.3" y2="155.0" stroke="#1e293b" stroke-width="2"/>
<line x1="218.8" y1="155.0" x2="499.2" y2="155.0" stroke="#1e293b" stroke-width="2"/>
<circle cx="218.8" cy="155.0" r="5" fill="#22c55e"/>
<circle cx="221.0" cy="155.0" r="5" fill="#22c55e"/>
<circle cx="499.2" cy="155.0" r="5" fill="#22c55e"/>
<circle cx="501.3" cy="155.0" r="5" fill="#22c55e"/>
<circle cx="58.7" cy="138.6" r="6" fill="#dc2626"/>
<circle cx="79.7" cy="138.6" r="4" fill="#2563eb"/>
<circle cx="79.7" cy="171.3" r="4" fill="#2563eb"/>
<circle cx="58.7" cy="171.3" r="4" fill="#2563eb"/>
<circle cx="339.0" cy="171.3" r="4" fill="#2563eb"/>
<circle cx="360.1" cy="171.3" r="4" fill="#2563eb"/>
<circle cx="360.1" cy="138.6" r="4" fill="#2563eb"/>
<circle cx="339.0" cy="138.6" r="6" fill="#b91c1c"/>
<text x="10" y="212" font-size="10" font-family="monospace" fill="#334155">St=4  edges=11  tree=18.6km  total=18.6km  ok</text>
<text x="280" y="32" font-size="9" fill="#64748b">● start/end  ● intermediate  ● steiner  ─ tree</text>
</svg>