<svg xmlns="http://www.w3.org/2000/svg" width="520" height="220" viewBox="0 0 520 220">
<rect width="100%" height="100%" fill="#f8fafc"/>
<text x="10" y="18" font-size="12" font-family="sans-serif" font-weight="bold">S06 — St=6 (3 clusters x2 Steiner)</text>
<line x1="50.0" y1="162.6" x2="210.0" y2="171.3" stroke="#1e293b" stroke-width="2"/>
<line x1="50.0" y1="180.0" x2="210.0" y2="171.3" stroke="#1e293b" stroke-width="2"/>
<line x1="61.2" y1="162.6" x2="211.2" y2="171.3" stroke="#1e293b" stroke-width="2"/>
<line x1="61.2" y1="180.0" x2="211.2" y2="171.3" stroke="#1e293b" stroke-width="2"/>
<line x1="210.0" y1="171.3" x2="211.2" y2="171.3" stroke="#1e293b" stroke-width="2"/>
<line x1="199.4" y1="180.0" x2="359.5" y2="171.3" stroke="#1e293b" stroke-width="2"/>
<line x1="199.4" y1="162.6" x2="359.5" y2="171.3" stroke="#1e293b" stroke-width="2"/>
<line x1="210.6" y1="180.0" x2="360.6" y2="171.3" stroke="#1e293b" stroke-width="2"/>
<line x1="210.6" y1="162.6" x2="360.6" y2="171.3" stroke="#1e293b" stroke-width="2"/>
<line x1="359.5" y1="171.3" x2="360.6" y2="171.3" stroke="#1e293b" stroke-width="2"/>
<line x1="348.8" y1="162.6" x2="508.9" y2="171.3" stroke="#1e293b" stroke-width="2"/>
<line x1="348.8" y1="180.0" x2="508.9" y2="171.3" stroke="#1e293b" stroke-width="2"/>
<line x1="360.0" y1="162.6" x2="510.0" y2="171.3" stroke="#1e293b" stroke-width="2"/>
<line x1="360.0" y1="180.0" x2="510.0" y2="171.3" stroke="#1e293b" stroke-width="2"/>
<line x1="508.9" y1="171.3" x2="510.0" y2="171.3" stroke="#1e293b" stroke-width="2"/>
<line x1="210.0" y1="171.3" x2="359.5" y2="171.3" stroke="#1e293b" stroke-width="2"/>
<line x1="359.5" y1="171.3" x2="508.9" y2="171.3" stroke="#1e293b" stroke-width="2"/>
<circle cx="210.0" cy="171.3" r="5" fill="#22c55e"/>
<circle cx="211.2" cy="171.3" r="5" fill="#22c55e"/>
<circle cx="359.5" cy="171.3" r="5" fill="#22c55e"/>
<circle cx="360.6" cy="171.3" r="5" fill="#22c55e"/>
<circle cx="508.9" cy="171.3" r="5" fill="#22c55e"/>
<circle cx="510.0" cy="171.3" r="5" fill="#22c55e"/>
<circle cx="50.0" cy="162.6" r="6" fill="#dc2626"/>
<circle cx="61.2" cy="162.6" r="4" fill="#2563eb"/>
<circle cx="61.2" cy="180.0" r="4" fill="#2563eb"/>
<circle cx="50.0" cy="180.0" r="4" fill="#2563eb"/>
<circle cx="199.4" cy="180.0" r="4" fill="#2563eb"/>
<circle cx="210.6" cy="180.0" r="4" fill="#2563eb"/>
<circle cx="210.6" cy="162.6" r="4" fill="#2563eb"/>
<circle cx="199.4" cy="162.6" r="4" fill="#2563eb"/>
<circle cx="348.8" cy="162.6" r="4" fill="#2563eb"/>
<circle cx="360.0" cy="162.6" r="4" fill="#2563eb"/>
<circle cx="360.0" cy="180.0" r="4" fill="#2563eb"/>
<circle cx="348.8" cy="180.0" r="6" fill="#b91c1c"/>
<text x="10" y="212" font-size="10" font-family="monospace" fill="#334155">St=6  edges=17  tree=34.0km  total=34.0km  ok</text>
<text x="280" y="32" font-size="9" fill="#64748b">● start/end  ● intermediate  ● steiner  ─ tree</text>
</svg>