<svg xmlns="http://www.w3.org/2000/svg" width="520" height="220" viewBox="0 0 520 220">
<rect width="100%" height="100%" fill="#f8fafc"/>
<text x="10" y="18" font-size="12" font-family="sans-serif" font-weight="bold">S07 — St=7 chain (9 terminals)</text>
<line x1="258.8" y1="173.8" x2="301.2" y2="173.8" stroke="#1e293b" stroke-width="2"/>
<line x1="301.2" y1="173.8" x2="343.6" y2="173.8" stroke="#1e293b" stroke-width="2"/>
<line x1="343.6" y1="173.8" x2="386.0" y2="173.8" stroke="#1e293b" stroke-width="2"/>
<line x1="386.0" y1="173.8" x2="428.4" y2="173.8" stroke="#1e293b" stroke-width="2"/>
<line x1="428.4" y1="173.8" x2="470.8" y2="173.8" stroke="#1e293b" stroke-width="2"/>
<line x1="470.8" y1="173.8" x2="513.2" y2="173.8" stroke="#1e293b" stroke-width="2"/>
<line x1="46.8" y1="166.3" x2="258.8" y2="173.8" stroke="#1e293b" stroke-width="2"/>
<line x1="89.2" y1="183.2" x2="258.8" y2="173.8" stroke="#1e293b" stroke-width="2"/>
<line x1="131.6" y1="166.3" x2="301.2" y2="173.8" stroke="#1e293b" stroke-width="2"/>
<line x1="174.0" y1="183.2" x2="343.6" y2="173.8" stroke="#1e293b" stroke-width="2"/>
<line x1="216.4" y1="166.3" x2="386.0" y2="173.8" stroke="#1e293b" stroke-width="2"/>
<line x1="258.8" y1="183.2" x2="428.4" y2="173.8" stroke="#1e293b" stroke-width="2"/>
<line x1="301.2" y1="166.3" x2="470.8" y2="173.8" stroke="#1e293b" stroke-width="2"/>
<line x1="343.6" y1="183.2" x2="513.2" y2="173.8" stroke="#1e293b" stroke-width="2"/>
<line x1="386.0" y1="166.3" x2="513.2" y2="173.8" stroke="#1e293b" stroke-width="2"/>
<circle cx="258.8" cy="173.8" r="5" fill="#22c55e"/>
<circle cx="301.2" cy="173.8" r="5" fill="#22c55e"/>
<circle cx="343.6" cy="173.8" r="5" fill="#22c55e"/>
<circle cx="386.0" cy="173.8" r="5" fill="#22c55e"/>
<circle cx="428.4" cy="173.8" r="5" fill="#22c55e"/>
<circle cx="470.8" cy="173.8" r="5" fill="#22c55e"/>
<circle cx="513.2" cy="173.8" r="5" fill="#22c55e"/>
<circle cx="46.8" cy="166.3" r="6" fill="#dc2626"/>
<circle cx="89.2" cy="183.2" r="4" fill="#2563eb"/>
<circle cx="131.6" cy="166.3" r="4" fill="#2563eb"/>
<circle cx="174.0" cy="183.2" r="4" fill="#2563eb"/>
<circle cx="216.4" cy="166.3" r="4" fill="#2563eb"/>
<circle cx="258.8" cy="183.2" r="4" fill="#2563eb"/>
<circle cx="301.2" cy="166.3" r="4" fill="#2563eb"/>
<circle cx="343.6" cy="183.2" r="4" fill="#2563eb"/>
<circle cx="386.0" cy="166.3" r="6" fill="#b91c1c"/>
<text x="10" y="212" font-size="10" font-family="monospace" fill="#334155">St=7  edges=15  tree=47.2km  total=47.2km  ok</text>
<text x="280" y="32" font-size="9" fill="#64748b">● start/end  ● intermediate  ● steiner  ─ tree</text>
</svg>