<svg xmlns="http://www.w3.org/2000/svg" width="520" height="220" viewBox="0 0 520 220">
<rect width="100%" height="100%" fill="#f8fafc"/>
<text x="10" y="18" font-size="12" font-family="sans-serif" font-weight="bold">S11 — St=11 chain (13 terminals)</text>
<line x1="238.4" y1="179.6" x2="266.1" y2="179.6" stroke="#1e293b" stroke-width="2"/>
<line x1="266.1" y1="179.6" x2="293.9" y2="179.6" stroke="#1e293b" stroke-width="2"/>
<line x1="293.9" y1="179.6" x2="321.6" y2="179.6" stroke="#1e293b" stroke-width="2"/>
<line x1="321.6" y1="179.6" x2="349.3" y2="179.6" stroke="#1e293b" stroke-width="2"/>
<line x1="349.3" y1="179.6" x2="377.0" y2="179.6" stroke="#1e293b" stroke-width="2"/>
<line x1="377.0" y1="179.6" x2="404.7" y2="179.6" stroke="#1e293b" stroke-width="2"/>
<line x1="404.7" y1="179.6" x2="432.4" y2="179.6" stroke="#1e293b" stroke-width="2"/>
<line x1="432.4" y1="179.6" x2="460.1" y2="179.6" stroke="#1e293b" stroke-width="2"/>
<line x1="460.1" y1="179.6" x2="487.9" y2="179.6" stroke="#1e293b" stroke-width="2"/>
<line x1="487.9" y1="179.6" x2="515.6" y2="179.6" stroke="#1e293b" stroke-width="2"/>
<line x1="44.4" y1="174.5" x2="238.4" y2="179.6" stroke="#1e293b" stroke-width="2"/>
<line x1="72.1" y1="185.6" x2="238.4" y2="179.6" stroke="#1e293b" stroke-width="2"/>
<line x1="99.9" y1="174.5" x2="266.1" y2="179.6" stroke="#1e293b" stroke-width="2"/>
<line x1="127.6" y1="185.6" x2="293.9" y2="179.6" stroke="#1e293b" stroke-width="2"/>
<line x1="155.3" y1="174.5" x2="321.6" y2="179.6" stroke="#1e293b" stroke-width="2"/>
<line x1="183.0" y1="185.6" x2="349.3" y2="179.6" stroke="#1e293b" stroke-width="2"/>
<line x1="210.7" y1="174.5" x2="377.0" y2="179.6" stroke="#1e293b" stroke-width="2"/>
<line x1="238.4" y1="185.6" x2="404.7" y2="179.6" stroke="#1e293b" stroke-width="2"/>
<line x1="266.1" y1="174.5" x2="432.4" y2="179.6" stroke="#1e293b" stroke-width="2"/>
<line x1="293.9" y1="185.6" x2="460.1" y2="179.6" stroke="#1e293b" stroke-width="2"/>
<line x1="321.6" y1="174.5" x2="487.9" y2="179.6" stroke="#1e293b" stroke-width="2"/>
<line x1="349.3" y1="185.6" x2="515.6" y2="179.6" stroke="#1e293b" stroke-width="2"/>
<line x1="377.0" y1="174.5" x2="515.6" y2="179.6" stroke="#1e293b" stroke-width="2"/>
<circle cx="238.4" cy="179.6" r="5" fill="#22c55e"/>
<circle cx="266.1" cy="179.6" r="5" fill="#22c55e"/>
<circle cx="293.9" cy="179.6" r="5" fill="#22c55e"/>
<circle cx="321.6" cy="179.6" r="5" fill="#22c55e"/>
<circle cx="349.3" cy="179.6" r="5" fill="#22c55e"/>
<circle cx="377.0" cy="179.6" r="5" fill="#22c55e"/>
<circle cx="404.7" cy="179.6" r="5" fill="#22c55e"/>
<circle cx="432.4" cy="179.6" r="5" fill="#22c55e"/>
<circle cx="460.1" cy="179.6" r="5" fill="#22c55e"/>
<circle cx="487.9" cy="179.6" r="5" fill="#22c55e"/>
<circle cx="515.6" cy="179.6" r="5" fill="#22c55e"/>
<circle cx="44.4" cy="174.5" r="6" fill="#dc2626"/>
<circle cx="72.1" cy="185.6" r="4" fill="#2563eb"/>
<circle cx="99.9" cy="174.5" r="4" fill="#2563eb"/>
<circle cx="127.6" cy="185.6" r="4" fill="#2563eb"/>
<circle cx="155.3" cy="174.5" r="4" fill="#2563eb"/>
<circle cx="183.0" cy="185.6" r="4" fill="#2563eb"/>
<circle cx="210.7" cy="174.5" r="4" fill="#2563eb"/>
<circle cx="238.4" cy="185.6" r="4" fill="#2563eb"/>
<circle cx="266.1" cy="174.5" r="4" fill="#2563eb"/>
<circle cx="293.9" cy="185.6" r="4" fill="#2563eb"/>
<circle cx="321.6" cy="174.5" r="4" fill="#2563eb"/>
<circle cx="349.3" cy="185.6" r="4" fill="#2563eb"/>
<circle cx="377.0" cy="174.5" r="6" fill="#b91c1c"/>
<text x="10" y="212" font-size="10" font-family="monospace" fill="#334155">St=11  edges=23  tree=71.2km  total=71.2km  ok</text>
<text x="280" y="32" font-size="9" fill="#64748b">● start/end  ● intermediate  ● steiner  ─ tree</text>
</svg>