<svg xmlns="http://www.w3.org/2000/svg" width="520" height="220" viewBox="0 0 520 220">
<rect width="100%" height="100%" fill="#f8fafc"/>
<text x="10" y="18" font-size="12" font-family="sans-serif" font-weight="bold">S12 — St=12 (6 clusters x2 Steiner)</text>
<line x1="44.1" y1="178.6" x2="204.2" y2="182.2" stroke="#1e293b" stroke-width="2"/>
<line x1="44.1" y1="185.9" x2="204.2" y2="182.2" stroke="#1e293b" stroke-width="2"/>
<line x1="48.8" y1="178.6" x2="204.7" y2="182.2" stroke="#1e293b" stroke-width="2"/>
<line x1="48.8" y1="185.9" x2="204.7" y2="182.2" stroke="#1e293b" stroke-width="2"/>
<line x1="204.2" y1="182.2" x2="204.7" y2="182.2" stroke="#1e293b" stroke-width="2"/>
<line x1="106.4" y1="185.9" x2="266.4" y2="182.2" stroke="#1e293b" stroke-width="2"/>
<line x1="106.4" y1="178.6" x2="266.4" y2="182.2" stroke="#1e293b" stroke-width="2"/>
<line x1="111.1" y1="185.9" x2="266.9" y2="182.2" stroke="#1e293b" stroke-width="2"/>
<line x1="111.1" y1="178.6" x2="266.9" y2="182.2" stroke="#1e293b" stroke-width="2"/>
<line x1="266.4" y1="182.2" x2="266.9" y2="182.2" stroke="#1e293b" stroke-width="2"/>
<line x1="168.6" y1="178.6" x2="328.7" y2="182.2" stroke="#1e293b" stroke-width="2"/>
<line x1="168.6" y1="185.9" x2="328.7" y2="182.2" stroke="#1e293b" stroke-width="2"/>
<line x1="173.3" y1="178.6" x2="329.1" y2="182.2" stroke="#1e293b" stroke-width="2"/>
<line x1="173.3" y1="185.9" x2="329.1" y2="182.2" stroke="#1e293b" stroke-width="2"/>
<line x1="328.7" y1="182.2" x2="329.1" y2="182.2" stroke="#1e293b" stroke-width="2"/>
<line x1="230.9" y1="185.9" x2="390.9" y2="182.2" stroke="#1e293b" stroke-width="2"/>
<line x1="230.9" y1="178.6" x2="390.9" y2="182.2" stroke="#1e293b" stroke-width="2"/>
<line x1="235.5" y1="185.9" x2="391.4" y2="182.2" stroke="#1e293b" stroke-width="2"/>
<line x1="235.5" y1="178.6" x2="391.4" y2="182.2" stroke="#1e293b" stroke-width="2"/>
<line x1="390.9" y1="182.2" x2="391.4" y2="182.2" stroke="#1e293b" stroke-width="2"/>
<line x1="293.1" y1="178.6" x2="453.1" y2="182.2" stroke="#1e293b" stroke-width="2"/>
<line x1="293.1" y1="185.9" x2="453.1" y2="182.2" stroke="#1e293b" stroke-width="2"/>
<line x1="297.8" y1="178.6" x2="453.6" y2="182.2" stroke="#1e293b" stroke-width="2"/>
<line x1="297.8" y1="185.9" x2="453.6" y2="182.2" stroke="#1e293b" stroke-width="2"/>
<line x1="453.1" y1="182.2" x2="453.6" y2="182.2" stroke="#1e293b" stroke-width="2"/>
<line x1="355.3" y1="185.9" x2="515.4" y2="182.2" stroke="#1e293b" stroke-width="2"/>
<line x1="355.3" y1="178.6" x2="515.4" y2="182.2" stroke="#1e293b" stroke-width="2"/>
<line x1="360.0" y1="185.9" x2="515.9" y2="182.2" stroke="#1e293b" stroke-width="2"/>
<line x1="360.0" y1="178.6" x2="515.9" y2="182.2" stroke="#1e293b" stroke-width="2"/>
<line x1="515.4" y1="182.2" x2="515.9" y2="182.2" stroke="#1e293b" stroke-width="2"/>
<line x1="204.2" y1="182.2" x2="266.4" y2="182.2" stroke="#1e293b" stroke-width="2"/>
<line x1="266.4" y1="182.2" x2="328.7" y2="182.2" stroke="#1e293b" stroke-width="2"/>
<line x1="328.7" y1="182.2" x2="390.9" y2="182.2" stroke="#1e293b" stroke-width="2"/>
<line x1="390.9" y1="182.2" x2="453.1" y2="182.2" stroke="#1e293b" stroke-width="2"/>
<line x1="453.1" y1="182.2" x2="515.4" y2="182.2" stroke="#1e293b" stroke-width="2"/>
<circle cx="204.2" cy="182.2" r="5" fill="#22c55e"/>
<circle cx="204.7" cy="182.2" r="5" fill="#22c55e"/>
<circle cx="266.4" cy="182.2" r="5" fill="#22c55e"/>
<circle cx="266.9" cy="182.2" r="5" fill="#22c55e"/>
<circle cx="328.7" cy="182.2" r="5" fill="#22c55e"/>
<circle cx="329.1" cy="182.2" r="5" fill="#22c55e"/>
<circle cx="390.9" cy="182.2" r="5" fill="#22c55e"/>
<circle cx="391.4" cy="182.2" r="5" fill="#22c55e"/>
<circle cx="453.1" cy="182.2" r="5" fill="#22c55e"/>
<circle cx="453.6" cy="182.2" r="5" fill="#22c55e"/>
<circle cx="515.4" cy="182.2" r="5" fill="#22c55e"/>
<circle cx="515.9" cy="182.2" r="5" fill="#22c55e"/>
<circle cx="44.1" cy="178.6" r="6" fill="#dc2626"/>
<circle cx="48.8" cy="178.6" r="4" fill="#2563eb"/>
<circle cx="48.8" cy="185.9" r="4" fill="#2563eb"/>
<circle cx="44.1" cy="185.9" r="4" fill="#2563eb"/>
<circle cx="106.4" cy="185.9" r="4" fill="#2563eb"/>
<circle cx="111.1" cy="185.9" r="4" fill="#2563eb"/>
<circle cx="111.1" cy="178.6" r="4" fill="#2563eb"/>
<circle cx="106.4" cy="178.6" r="4" fill="#2563eb"/>
<circle cx="168.6" cy="178.6" r="4" fill="#2563eb"/>
<circle cx="173.3" cy="178.6" r="4" fill="#2563eb"/>
<circle cx="173.3" cy="185.9" r="4" fill="#2563eb"/>
<circle cx="168.6" cy="185.9" r="4" fill="#2563eb"/>
<circle cx="230.9" cy="185.9" r="4" fill="#2563eb"/>
<circle cx="235.5" cy="185.9" r="4" fill="#2563eb"/>
<circle cx="235.5" cy="178.6" r="4" fill="#2563eb"/>
<circle cx="230.9" cy="178.6" r="4" fill="#2563eb"/>
<circle cx="293.1" cy="178.6" r="4" fill="#2563eb"/>
<circle cx="297.8" cy="178.6" r="4" fill="#2563eb"/>
<circle cx="297.8" cy="185.9" r="4" fill="#2563eb"/>
<circle cx="293.1" cy="185.9" r="4" fill="#2563eb"/>
<circle cx="355.3" cy="185.9" r="4" fill="#2563eb"/>
<circle cx="360.0" cy="185.9" r="4" fill="#2563eb"/>
<circle cx="360.0" cy="178.6" r="4" fill="#2563eb"/>
<circle cx="355.3" cy="178.6" r="6" fill="#b91c1c"/>
<text x="10" y="212" font-size="10" font-family="monospace" fill="#334155">St=12  edges=35  tree=79.9km  total=79.9km  ok</text>
<text x="280" y="32" font-size="9" fill="#64748b">● start/end  ● intermediate  ● steiner  ─ tree</text>
</svg>