<svg xmlns="http://www.w3.org/2000/svg" width="520" height="220" viewBox="0 0 520 220">
<rect width="100%" height="100%" fill="#f8fafc"/>
<text x="10" y="18" font-size="12" font-family="sans-serif" font-weight="bold">S13 — St=13 chain (15 terminals)</text>
<line x1="232.8" y1="181.2" x2="256.4" y2="181.2" stroke="#1e293b" stroke-width="2"/>
<line x1="256.4" y1="181.2" x2="280.0" y2="181.2" stroke="#1e293b" stroke-width="2"/>
<line x1="280.0" y1="181.2" x2="303.6" y2="181.2" stroke="#1e293b" stroke-width="2"/>
<line x1="303.6" y1="181.2" x2="327.2" y2="181.2" stroke="#1e293b" stroke-width="2"/>
<line x1="327.2" y1="181.2" x2="350.9" y2="181.2" stroke="#1e293b" stroke-width="2"/>
<line x1="350.9" y1="181.2" x2="374.5" y2="181.2" stroke="#1e293b" stroke-width="2"/>
<line x1="374.5" y1="181.2" x2="398.1" y2="181.2" stroke="#1e293b" stroke-width="2"/>
<line x1="398.1" y1="181.2" x2="421.7" y2="181.2" stroke="#1e293b" stroke-width="2"/>
<line x1="421.7" y1="181.2" x2="445.4" y2="181.2" stroke="#1e293b" stroke-width="2"/>
<line x1="445.4" y1="181.2" x2="469.0" y2="181.2" stroke="#1e293b" stroke-width="2"/>
<line x1="469.0" y1="181.2" x2="492.6" y2="181.2" stroke="#1e293b" stroke-width="2"/>
<line x1="492.6" y1="181.2" x2="516.2" y2="181.2" stroke="#1e293b" stroke-width="2"/>
<line x1="43.8" y1="176.8" x2="232.8" y2="181.2" stroke="#1e293b" stroke-width="2"/>
<line x1="67.4" y1="186.2" x2="232.8" y2="181.2" stroke="#1e293b" stroke-width="2"/>
<line x1="91.0" y1="176.8" x2="256.4" y2="181.2" stroke="#1e293b" stroke-width="2"/>
<line x1="114.6" y1="186.2" x2="280.0" y2="181.2" stroke="#1e293b" stroke-width="2"/>
<line x1="138.3" y1="176.8" x2="303.6" y2="181.2" stroke="#1e293b" stroke-width="2"/>
<line x1="161.9" y1="186.2" x2="327.2" y2="181.2" stroke="#1e293b" stroke-width="2"/>
<line x1="185.5" y1="176.8" x2="350.9" y2="181.2" stroke="#1e293b" stroke-width="2"/>
<line x1="209.1" y1="186.2" x2="374.5" y2="181.2" stroke="#1e293b" stroke-width="2"/>
<line x1="232.8" y1="176.8" x2="398.1" y2="181.2" stroke="#1e293b" stroke-width="2"/>
<line x1="256.4" y1="186.2" x2="421.7" y2="181.2" stroke="#1e293b" stroke-width="2"/>
<line x1="280.0" y1="176.8" x2="445.4" y2="181.2" stroke="#1e293b" stroke-width="2"/>
<line x1="303.6" y1="186.2" x2="469.0" y2="181.2" stroke="#1e293b" stroke-width="2"/>
<line x1="327.2" y1="176.8" x2="492.6" y2="181.2" stroke="#1e293b" stroke-width="2"/>
<line x1="350.9" y1="186.2" x2="516.2" y2="181.2" stroke="#1e293b" stroke-width="2"/>
<line x1="374.5" y1="176.8" x2="516.2" y2="181.2" stroke="#1e293b" stroke-width="2"/>
<circle cx="232.8" cy="181.2" r="5" fill="#22c55e"/>
<circle cx="256.4" cy="181.2" r="5" fill="#22c55e"/>
<circle cx="280.0" cy="181.2" r="5" fill="#22c55e"/>
<circle cx="303.6" cy="181.2" r="5" fill="#22c55e"/>
<circle cx="327.2" cy="181.2" r="5" fill="#22c55e"/>
<circle cx="350.9" cy="181.2" r="5" fill="#22c55e"/>
<circle cx="374.5" cy="181.2" r="5" fill="#22c55e"/>
<circle cx="398.1" cy="181.2" r="5" fill="#22c55e"/>
<circle cx="421.7" cy="181.2" r="5" fill="#22c55e"/>
<circle cx="445.4" cy="181.2" r="5" fill="#22c55e"/>
<circle cx="469.0" cy="181.2" r="5" fill="#22c55e"/>
<circle cx="492.6" cy="181.2" r="5" fill="#22c55e"/>
<circle cx="516.2" cy="181.2" r="5" fill="#22c55e"/>
<circle cx="43.8" cy="176.8" r="6" fill="#dc2626"/>
<circle cx="67.4" cy="186.2" r="4" fill="#2563eb"/>
<circle cx="91.0" cy="176.8" r="4" fill="#2563eb"/>
<circle cx="114.6" cy="186.2" r="4" fill="#2563eb"/>
<circle cx="138.3" cy="176.8" r="4" fill="#2563eb"/>
<circle cx="161.9" cy="186.2" r="4" fill="#2563eb"/>
<circle cx="185.5" cy="176.8" r="4" fill="#2563eb"/>
<circle cx="209.1" cy="186.2" r="4" fill="#2563eb"/>
<circle cx="232.8" cy="176.8" r="4" fill="#2563eb"/>
<circle cx="256.4" cy="186.2" r="4" fill="#2563eb"/>
<circle cx="280.0" cy="176.8" r="4" fill="#2563eb"/>
<circle cx="303.6" cy="186.2" r="4" fill="#2563eb"/>
<circle cx="327.2" cy="176.8" r="4" fill="#2563eb"/>
<circle cx="350.9" cy="186.2" r="4" fill="#2563eb"/>
<circle cx="374.5" cy="176.8" r="6" fill="#b91c1c"/>
<text x="10" y="212" font-size="10" font-family="monospace" fill="#334155">St=13  edges=27  tree=83.2km  total=83.2km  ok</text>
<text x="280" y="32" font-size="9" fill="#64748b">● start/end  ● intermediate  ● steiner  ─ tree</text>
</svg>