<svg xmlns="http://www.w3.org/2000/svg" width="520" height="220" viewBox="0 0 520 220">
<rect width="100%" height="100%" fill="#f8fafc"/>
<text x="10" y="18" font-size="12" font-family="sans-serif" font-weight="bold">S14 — St=14 (7 clusters x2 Steiner)</text>
<line x1="43.5" y1="180.4" x2="203.5" y2="183.5" stroke="#1e293b" stroke-width="2"/>
<line x1="43.5" y1="186.5" x2="203.5" y2="183.5" stroke="#1e293b" stroke-width="2"/>
<line x1="47.4" y1="180.4" x2="203.9" y2="183.5" stroke="#1e293b" stroke-width="2"/>
<line x1="47.4" y1="186.5" x2="203.9" y2="183.5" stroke="#1e293b" stroke-width="2"/>
<line x1="203.5" y1="183.5" x2="203.9" y2="183.5" stroke="#1e293b" stroke-width="2"/>
<line x1="95.6" y1="186.5" x2="255.6" y2="183.5" stroke="#1e293b" stroke-width="2"/>
<line x1="95.6" y1="180.4" x2="255.6" y2="183.5" stroke="#1e293b" stroke-width="2"/>
<line x1="99.5" y1="186.5" x2="256.0" y2="183.5" stroke="#1e293b" stroke-width="2"/>
<line x1="99.5" y1="180.4" x2="256.0" y2="183.5" stroke="#1e293b" stroke-width="2"/>
<line x1="255.6" y1="183.5" x2="256.0" y2="183.5" stroke="#1e293b" stroke-width="2"/>
<line x1="147.7" y1="180.4" x2="307.7" y2="183.5" stroke="#1e293b" stroke-width="2"/>
<line x1="147.7" y1="186.5" x2="307.7" y2="183.5" stroke="#1e293b" stroke-width="2"/>
<line x1="151.6" y1="180.4" x2="308.1" y2="183.5" stroke="#1e293b" stroke-width="2"/>
<line x1="151.6" y1="186.5" x2="308.1" y2="183.5" stroke="#1e293b" stroke-width="2"/>
<line x1="307.7" y1="183.5" x2="308.1" y2="183.5" stroke="#1e293b" stroke-width="2"/>
<line x1="199.8" y1="186.5" x2="359.8" y2="183.5" stroke="#1e293b" stroke-width="2"/>
<line x1="199.8" y1="180.4" x2="359.8" y2="183.5" stroke="#1e293b" stroke-width="2"/>
<line x1="203.7" y1="186.5" x2="360.2" y2="183.5" stroke="#1e293b" stroke-width="2"/>
<line x1="203.7" y1="180.4" x2="360.2" y2="183.5" stroke="#1e293b" stroke-width="2"/>
<line x1="359.8" y1="183.5" x2="360.2" y2="183.5" stroke="#1e293b" stroke-width="2"/>
<line x1="251.9" y1="180.4" x2="411.9" y2="183.5" stroke="#1e293b" stroke-width="2"/>
<line x1="251.9" y1="186.5" x2="411.9" y2="183.5" stroke="#1e293b" stroke-width="2"/>
<line x1="255.8" y1="180.4" x2="412.3" y2="183.5" stroke="#1e293b" stroke-width="2"/>
<line x1="255.8" y1="186.5" x2="412.3" y2="183.5" stroke="#1e293b" stroke-width="2"/>
<line x1="411.9" y1="183.5" x2="412.3" y2="183.5" stroke="#1e293b" stroke-width="2"/>
<line x1="304.0" y1="186.5" x2="464.0" y2="183.5" stroke="#1e293b" stroke-width="2"/>
<line x1="304.0" y1="180.4" x2="464.0" y2="183.5" stroke="#1e293b" stroke-width="2"/>
<line x1="307.9" y1="186.5" x2="464.4" y2="183.5" stroke="#1e293b" stroke-width="2"/>
<line x1="307.9" y1="180.4" x2="464.4" y2="183.5" stroke="#1e293b" stroke-width="2"/>
<line x1="464.0" y1="183.5" x2="464.4" y2="183.5" stroke="#1e293b" stroke-width="2"/>
<line x1="356.1" y1="180.4" x2="516.1" y2="183.5" stroke="#1e293b" stroke-width="2"/>
<line x1="356.1" y1="186.5" x2="516.1" y2="183.5" stroke="#1e293b" stroke-width="2"/>
<line x1="360.0" y1="180.4" x2="516.5" y2="183.5" stroke="#1e293b" stroke-width="2"/>
<line x1="360.0" y1="186.5" x2="516.5" y2="183.5" stroke="#1e293b" stroke-width="2"/>
<line x1="516.1" y1="183.5" x2="516.5" y2="183.5" stroke="#1e293b" stroke-width="2"/>
<line x1="203.5" y1="183.5" x2="255.6" y2="183.5" stroke="#1e293b" stroke-width="2"/>
<line x1="255.6" y1="183.5" x2="307.7" y2="183.5" stroke="#1e293b" stroke-width="2"/>
<line x1="307.7" y1="183.5" x2="359.8" y2="183.5" stroke="#1e293b" stroke-width="2"/>
<line x1="359.8" y1="183.5" x2="411.9" y2="183.5" stroke="#1e293b" stroke-width="2"/>
<line x1="411.9" y1="183.5" x2="464.0" y2="183.5" stroke="#1e293b" stroke-width="2"/>
<line x1="464.0" y1="183.5" x2="516.1" y2="183.5" stroke="#1e293b" stroke-width="2"/>
<circle cx="203.5" cy="183.5" r="5" fill="#22c55e"/>
<circle cx="203.9" cy="183.5" r="5" fill="#22c55e"/>
<circle cx="255.6" cy="183.5" r="5" fill="#22c55e"/>
<circle cx="256.0" cy="183.5" r="5" fill="#22c55e"/>
<circle cx="307.7" cy="183.5" r="5" fill="#22c55e"/>
<circle cx="308.1" cy="183.5" r="5" fill="#22c55e"/>
<circle cx="359.8" cy="183.5" r="5" fill="#22c55e"/>
<circle cx="360.2" cy="183.5" r="5" fill="#22c55e"/>
<circle cx="411.9" cy="183.5" r="5" fill="#22c55e"/>
<circle cx="412.3" cy="183.5" r="5" fill="#22c55e"/>
<circle cx="464.0" cy="183.5" r="5" fill="#22c55e"/>
<circle cx="464.4" cy="183.5" r="5" fill="#22c55e"/>
<circle cx="516.1" cy="183.5" r="5" fill="#22c55e"/>
<circle cx="516.5" cy="183.5" r="5" fill="#22c55e"/>
<circle cx="43.5" cy="180.4" r="6" fill="#dc2626"/>
<circle cx="47.4" cy="180.4" r="4" fill="#2563eb"/>
<circle cx="47.4" cy="186.5" r="4" fill="#2563eb"/>
<circle cx="43.5" cy="186.5" r="4" fill="#2563eb"/>
<circle cx="95.6" cy="186.5" r="4" fill="#2563eb"/>
<circle cx="99.5" cy="186.5" r="4" fill="#2563eb"/>
<circle cx="99.5" cy="180.4" r="4" fill="#2563eb"/>
<circle cx="95.6" cy="180.4" r="4" fill="#2563eb"/>
<circle cx="147.7" cy="180.4" r="4" fill="#2563eb"/>
<circle cx="151.6" cy="180.4" r="4" fill="#2563eb"/>
<circle cx="151.6" cy="186.5" r="4" fill="#2563eb"/>
<circle cx="147.7" cy="186.5" r="4" fill="#2563eb"/>
<circle cx="199.8" cy="186.5" r="4" fill="#2563eb"/>
<circle cx="203.7" cy="186.5" r="4" fill="#2563eb"/>
<circle cx="203.7" cy="180.4" r="4" fill="#2563eb"/>
<circle cx="199.8" cy="180.4" r="4" fill="#2563eb"/>
<circle cx="251.9" cy="180.4" r="4" fill="#2563eb"/>
<circle cx="255.8" cy="180.4" r="4" fill="#2563eb"/>
<circle cx="255.8" cy="186.5" r="4" fill="#2563eb"/>
<circle cx="251.9" cy="186.5" r="4" fill="#2563eb"/>
<circle cx="304.0" cy="186.5" r="4" fill="#2563eb"/>
<circle cx="307.9" cy="186.5" r="4" fill="#2563eb"/>
<circle cx="307.9" cy="180.4" r="4" fill="#2563eb"/>
<circle cx="304.0" cy="180.4" r="4" fill="#2563eb"/>
<circle cx="356.1" cy="180.4" r="4" fill="#2563eb"/>
<circle cx="360.0" cy="180.4" r="4" fill="#2563eb"/>
<circle cx="360.0" cy="186.5" r="4" fill="#2563eb"/>
<circle cx="356.1" cy="186.5" r="6" fill="#b91c1c"/>
<text x="10" y="212" font-size="10" font-family="monospace" fill="#334155">St=14  edges=41  tree=95.3km  total=95.3km  ok</text>
<text x="280" y="32" font-size="9" fill="#64748b">● start/end  ● intermediate  ● steiner  ─ tree</text>
</svg>