<svg xmlns="http://www.w3.org/2000/svg" width="520" height="220" viewBox="0 0 520 220">
<rect width="100%" height="100%" fill="#f8fafc"/>
<text x="10" y="18" font-size="12" font-family="sans-serif" font-weight="bold">S15 — St=15 chain (17 terminals)</text>
<line x1="228.5" y1="182.3" x2="249.1" y2="182.3" stroke="#1e293b" stroke-width="2"/>
<line x1="249.1" y1="182.3" x2="269.7" y2="182.3" stroke="#1e293b" stroke-width="2"/>
<line x1="269.7" y1="182.3" x2="290.3" y2="182.3" stroke="#1e293b" stroke-width="2"/>
<line x1="290.3" y1="182.3" x2="310.9" y2="182.3" stroke="#1e293b" stroke-width="2"/>
<line x1="310.9" y1="182.3" x2="331.5" y2="182.3" stroke="#1e293b" stroke-width="2"/>
<line x1="331.5" y1="182.3" x2="352.0" y2="182.3" stroke="#1e293b" stroke-width="2"/>
<line x1="352.0" y1="182.3" x2="372.6" y2="182.3" stroke="#1e293b" stroke-width="2"/>
<line x1="372.6" y1="182.3" x2="393.2" y2="182.3" stroke="#1e293b" stroke-width="2"/>
<line x1="393.2" y1="182.3" x2="413.8" y2="182.3" stroke="#1e293b" stroke-width="2"/>
<line x1="413.8" y1="182.3" x2="434.4" y2="182.3" stroke="#1e293b" stroke-width="2"/>
<line x1="434.4" y1="182.3" x2="455.0" y2="182.3" stroke="#1e293b" stroke-width="2"/>
<line x1="455.0" y1="182.3" x2="475.5" y2="182.3" stroke="#1e293b" stroke-width="2"/>
<line x1="475.5" y1="182.3" x2="496.1" y2="182.3" stroke="#1e293b" stroke-width="2"/>
<line x1="496.1" y1="182.3" x2="516.7" y2="182.3" stroke="#1e293b" stroke-width="2"/>
<line x1="43.3" y1="178.5" x2="228.5" y2="182.3" stroke="#1e293b" stroke-width="2"/>
<line x1="63.9" y1="186.7" x2="228.5" y2="182.3" stroke="#1e293b" stroke-width="2"/>
<line x1="84.5" y1="178.5" x2="249.1" y2="182.3" stroke="#1e293b" stroke-width="2"/>
<line x1="105.0" y1="186.7" x2="269.7" y2="182.3" stroke="#1e293b" stroke-width="2"/>
<line x1="125.6" y1="178.5" x2="290.3" y2="182.3" stroke="#1e293b" stroke-width="2"/>
<line x1="146.2" y1="186.7" x2="310.9" y2="182.3" stroke="#1e293b" stroke-width="2"/>
<line x1="166.8" y1="178.5" x2="331.5" y2="182.3" stroke="#1e293b" stroke-width="2"/>
<line x1="187.4" y1="186.7" x2="352.0" y2="182.3" stroke="#1e293b" stroke-width="2"/>
<line x1="208.0" y1="178.5" x2="372.6" y2="182.3" stroke="#1e293b" stroke-width="2"/>
<line x1="228.5" y1="186.7" x2="393.2" y2="182.3" stroke="#1e293b" stroke-width="2"/>
<line x1="249.1" y1="178.5" x2="413.8" y2="182.3" stroke="#1e293b" stroke-width="2"/>
<line x1="269.7" y1="186.7" x2="434.4" y2="182.3" stroke="#1e293b" stroke-width="2"/>
<line x1="290.3" y1="178.5" x2="455.0" y2="182.3" stroke="#1e293b" stroke-width="2"/>
<line x1="310.9" y1="186.7" x2="475.5" y2="182.3" stroke="#1e293b" stroke-width="2"/>
<line x1="331.5" y1="178.5" x2="496.1" y2="182.3" stroke="#1e293b" stroke-width="2"/>
<line x1="352.0" y1="186.7" x2="516.7" y2="182.3" stroke="#1e293b" stroke-width="2"/>
<line x1="372.6" y1="178.5" x2="516.7" y2="182.3" stroke="#1e293b" stroke-width="2"/>
<circle cx="228.5" cy="182.3" r="5" fill="#22c55e"/>
<circle cx="249.1" cy="182.3" r="5" fill="#22c55e"/>
<circle cx="269.7" cy="182.3" r="5" fill="#22c55e"/>
<circle cx="290.3" cy="182.3" r="5" fill="#22c55e"/>
<circle cx="310.9" cy="182.3" r="5" fill="#22c55e"/>
<circle cx="331.5" cy="182.3" r="5" fill="#22c55e"/>
<circle cx="352.0" cy="182.3" r="5" fill="#22c55e"/>
<circle cx="372.6" cy="182.3" r="5" fill="#22c55e"/>
<circle cx="393.2" cy="182.3" r="5" fill="#22c55e"/>
<circle cx="413.8" cy="182.3" r="5" fill="#22c55e"/>
<circle cx="434.4" cy="182.3" r="5" fill="#22c55e"/>
<circle cx="455.0" cy="182.3" r="5" fill="#22c55e"/>
<circle cx="475.5" cy="182.3" r="5" fill="#22c55e"/>
<circle cx="496.1" cy="182.3" r="5" fill="#22c55e"/>
<circle cx="516.7" cy="182.3" r="5" fill="#22c55e"/>
<circle cx="43.3" cy="178.5" r="6" fill="#dc2626"/>
<circle cx="63.9" cy="186.7" r="4" fill="#2563eb"/>
<circle cx="84.5" cy="178.5" r="4" fill="#2563eb"/>
<circle cx="105.0" cy="186.7" r="4" fill="#2563eb"/>
<circle cx="125.6" cy="178.5" r="4" fill="#2563eb"/>
<circle cx="146.2" cy="186.7" r="4" fill="#2563eb"/>
<circle cx="166.8" cy="178.5" r="4" fill="#2563eb"/>
<circle cx="187.4" cy="186.7" r="4" fill="#2563eb"/>
<circle cx="208.0" cy="178.5" r="4" fill="#2563eb"/>
<circle cx="228.5" cy="186.7" r="4" fill="#2563eb"/>
<circle cx="249.1" cy="178.5" r="4" fill="#2563eb"/>
<circle cx="269.7" cy="186.7" r="4" fill="#2563eb"/>
<circle cx="290.3" cy="178.5" r="4" fill="#2563eb"/>
<circle cx="310.9" cy="186.7" r="4" fill="#2563eb"/>
<circle cx="331.5" cy="178.5" r="4" fill="#2563eb"/>
<circle cx="352.0" cy="186.7" r="4" fill="#2563eb"/>
<circle cx="372.6" cy="178.5" r="6" fill="#b91c1c"/>
<text x="10" y="212" font-size="10" font-family="monospace" fill="#334155">St=15  edges=31  tree=95.2km  total=95.2km  ok</text>
<text x="280" y="32" font-size="9" fill="#64748b">● start/end  ● intermediate  ● steiner  ─ tree</text>
</svg>