<svg xmlns="http://www.w3.org/2000/svg" width="520" height="220" viewBox="0 0 520 220">
<rect width="100%" height="100%" fill="#f8fafc"/>
<text x="10" y="18" font-size="12" font-family="sans-serif" font-weight="bold">S16 — St=16 (8 clusters x2 Steiner)</text>
<line x1="43.0" y1="181.8" x2="203.0" y2="184.4" stroke="#1e293b" stroke-width="2"/>
<line x1="43.0" y1="187.0" x2="203.0" y2="184.4" stroke="#1e293b" stroke-width="2"/>
<line x1="46.3" y1="181.8" x2="203.4" y2="184.4" stroke="#1e293b" stroke-width="2"/>
<line x1="46.3" y1="187.0" x2="203.4" y2="184.4" stroke="#1e293b" stroke-width="2"/>
<line x1="203.0" y1="184.4" x2="203.4" y2="184.4" stroke="#1e293b" stroke-width="2"/>
<line x1="87.8" y1="187.0" x2="247.8" y2="184.4" stroke="#1e293b" stroke-width="2"/>
<line x1="87.8" y1="181.8" x2="247.8" y2="184.4" stroke="#1e293b" stroke-width="2"/>
<line x1="91.2" y1="187.0" x2="248.2" y2="184.4" stroke="#1e293b" stroke-width="2"/>
<line x1="91.2" y1="181.8" x2="248.2" y2="184.4" stroke="#1e293b" stroke-width="2"/>
<line x1="247.8" y1="184.4" x2="248.2" y2="184.4" stroke="#1e293b" stroke-width="2"/>
<line x1="132.6" y1="181.8" x2="292.6" y2="184.4" stroke="#1e293b" stroke-width="2"/>
<line x1="132.6" y1="187.0" x2="292.6" y2="184.4" stroke="#1e293b" stroke-width="2"/>
<line x1="136.0" y1="181.8" x2="293.0" y2="184.4" stroke="#1e293b" stroke-width="2"/>
<line x1="136.0" y1="187.0" x2="293.0" y2="184.4" stroke="#1e293b" stroke-width="2"/>
<line x1="292.6" y1="184.4" x2="293.0" y2="184.4" stroke="#1e293b" stroke-width="2"/>
<line x1="177.4" y1="187.0" x2="337.4" y2="184.4" stroke="#1e293b" stroke-width="2"/>
<line x1="177.4" y1="181.8" x2="337.4" y2="184.4" stroke="#1e293b" stroke-width="2"/>
<line x1="180.8" y1="187.0" x2="337.8" y2="184.4" stroke="#1e293b" stroke-width="2"/>
<line x1="180.8" y1="181.8" x2="337.8" y2="184.4" stroke="#1e293b" stroke-width="2"/>
<line x1="337.4" y1="184.4" x2="337.8" y2="184.4" stroke="#1e293b" stroke-width="2"/>
<line x1="222.2" y1="181.8" x2="382.2" y2="184.4" stroke="#1e293b" stroke-width="2"/>
<line x1="222.2" y1="187.0" x2="382.2" y2="184.4" stroke="#1e293b" stroke-width="2"/>
<line x1="225.6" y1="181.8" x2="382.6" y2="184.4" stroke="#1e293b" stroke-width="2"/>
<line x1="225.6" y1="187.0" x2="382.6" y2="184.4" stroke="#1e293b" stroke-width="2"/>
<line x1="382.2" y1="184.4" x2="382.6" y2="184.4" stroke="#1e293b" stroke-width="2"/>
<line x1="267.0" y1="187.0" x2="427.1" y2="184.4" stroke="#1e293b" stroke-width="2"/>
<line x1="267.0" y1="181.8" x2="427.1" y2="184.4" stroke="#1e293b" stroke-width="2"/>
<line x1="270.4" y1="187.0" x2="427.4" y2="184.4" stroke="#1e293b" stroke-width="2"/>
<line x1="270.4" y1="181.8" x2="427.4" y2="184.4" stroke="#1e293b" stroke-width="2"/>
<line x1="427.1" y1="184.4" x2="427.4" y2="184.4" stroke="#1e293b" stroke-width="2"/>
<line x1="311.8" y1="181.8" x2="471.9" y2="184.4" stroke="#1e293b" stroke-width="2"/>
<line x1="311.8" y1="187.0" x2="471.9" y2="184.4" stroke="#1e293b" stroke-width="2"/>
<line x1="315.2" y1="181.8" x2="472.2" y2="184.4" stroke="#1e293b" stroke-width="2"/>
<line x1="315.2" y1="187.0" x2="472.2" y2="184.4" stroke="#1e293b" stroke-width="2"/>
<line x1="471.9" y1="184.4" x2="472.2" y2="184.4" stroke="#1e293b" stroke-width="2"/>
<line x1="356.6" y1="187.0" x2="516.7" y2="184.4" stroke="#1e293b" stroke-width="2"/>
<line x1="356.6" y1="181.8" x2="516.7" y2="184.4" stroke="#1e293b" stroke-width="2"/>
<line x1="360.0" y1="187.0" x2="517.0" y2="184.4" stroke="#1e293b" stroke-width="2"/>
<line x1="360.0" y1="181.8" x2="517.0" y2="184.4" stroke="#1e293b" stroke-width="2"/>
<line x1="516.7" y1="184.4" x2="517.0" y2="184.4" stroke="#1e293b" stroke-width="2"/>
<line x1="203.0" y1="184.4" x2="247.8" y2="184.4" stroke="#1e293b" stroke-width="2"/>
<line x1="247.8" y1="184.4" x2="292.6" y2="184.4" stroke="#1e293b" stroke-width="2"/>
<line x1="292.6" y1="184.4" x2="337.4" y2="184.4" stroke="#1e293b" stroke-width="2"/>
<line x1="337.4" y1="184.4" x2="382.2" y2="184.4" stroke="#1e293b" stroke-width="2"/>
<line x1="382.2" y1="184.4" x2="427.1" y2="184.4" stroke="#1e293b" stroke-width="2"/>
<line x1="427.1" y1="184.4" x2="471.9" y2="184.4" stroke="#1e293b" stroke-width="2"/>
<line x1="471.9" y1="184.4" x2="516.7" y2="184.4" stroke="#1e293b" stroke-width="2"/>
<circle cx="203.0" cy="184.4" r="5" fill="#22c55e"/>
<circle cx="203.4" cy="184.4" r="5" fill="#22c55e"/>
<circle cx="247.8" cy="184.4" r="5" fill="#22c55e"/>
<circle cx="248.2" cy="184.4" r="5" fill="#22c55e"/>
<circle cx="292.6" cy="184.4" r="5" fill="#22c55e"/>
<circle cx="293.0" cy="184.4" r="5" fill="#22c55e"/>
<circle cx="337.4" cy="184.4" r="5" fill="#22c55e"/>
<circle cx="337.8" cy="184.4" r="5" fill="#22c55e"/>
<circle cx="382.2" cy="184.4" r="5" fill="#22c55e"/>
<circle cx="382.6" cy="184.4" r="5" fill="#22c55e"/>
<circle cx="427.1" cy="184.4" r="5" fill="#22c55e"/>
<circle cx="427.4" cy="184.4" r="5" fill="#22c55e"/>
<circle cx="471.9" cy="184.4" r="5" fill="#22c55e"/>
<circle cx="472.2" cy="184.4" r="5" fill="#22c55e"/>
<circle cx="516.7" cy="184.4" r="5" fill="#22c55e"/>
<circle cx="517.0" cy="184.4" r="5" fill="#22c55e"/>
<circle cx="43.0" cy="181.8" r="6" fill="#dc2626"/>
<circle cx="46.3" cy="181.8" r="4" fill="#2563eb"/>
<circle cx="46.3" cy="187.0" r="4" fill="#2563eb"/>
<circle cx="43.0" cy="187.0" r="4" fill="#2563eb"/>
<circle cx="87.8" cy="187.0" r="4" fill="#2563eb"/>
<circle cx="91.2" cy="187.0" r="4" fill="#2563eb"/>
<circle cx="91.2" cy="181.8" r="4" fill="#2563eb"/>
<circle cx="87.8" cy="181.8" r="4" fill="#2563eb"/>
<circle cx="132.6" cy="181.8" r="4" fill="#2563eb"/>
<circle cx="136.0" cy="181.8" r="4" fill="#2563eb"/>
<circle cx="136.0" cy="187.0" r="4" fill="#2563eb"/>
<circle cx="132.6" cy="187.0" r="4" fill="#2563eb"/>
<circle cx="177.4" cy="187.0" r="4" fill="#2563eb"/>
<circle cx="180.8" cy="187.0" r="4" fill="#2563eb"/>
<circle cx="180.8" cy="181.8" r="4" fill="#2563eb"/>
<circle cx="177.4" cy="181.8" r="4" fill="#2563eb"/>
<circle cx="222.2" cy="181.8" r="4" fill="#2563eb"/>
<circle cx="225.6" cy="181.8" r="4" fill="#2563eb"/>
<circle cx="225.6" cy="187.0" r="4" fill="#2563eb"/>
<circle cx="222.2" cy="187.0" r="4" fill="#2563eb"/>
<circle cx="267.0" cy="187.0" r="4" fill="#2563eb"/>
<circle cx="270.4" cy="187.0" r="4" fill="#2563eb"/>
<circle cx="270.4" cy="181.8" r="4" fill="#2563eb"/>
<circle cx="267.0" cy="181.8" r="4" fill="#2563eb"/>
<circle cx="311.8" cy="181.8" r="4" fill="#2563eb"/>
<circle cx="315.2" cy="181.8" r="4" fill="#2563eb"/>
<circle cx="315.2" cy="187.0" r="4" fill="#2563eb"/>
<circle cx="311.8" cy="187.0" r="4" fill="#2563eb"/>
<circle cx="356.6" cy="187.0" r="4" fill="#2563eb"/>
<circle cx="360.0" cy="187.0" r="4" fill="#2563eb"/>
<circle cx="360.0" cy="181.8" r="4" fill="#2563eb"/>
<circle cx="356.6" cy="181.8" r="6" fill="#b91c1c"/>
<text x="10" y="212" font-size="10" font-family="monospace" fill="#334155">St=16  edges=47  tree=110.6km  total=110.6km  ok</text>
<text x="280" y="32" font-size="9" fill="#64748b">● start/end  ● intermediate  ● steiner  ─ tree</text>
</svg>