<svg xmlns="http://www.w3.org/2000/svg" width="520" height="220" viewBox="0 0 520 220">
<rect width="100%" height="100%" fill="#f8fafc"/>
<text x="10" y="18" font-size="12" font-family="sans-serif" font-weight="bold">S17 — St=17 chain (19 terminals)</text>
<line x1="225.3" y1="183.2" x2="243.5" y2="183.2" stroke="#1e293b" stroke-width="2"/>
<line x1="243.5" y1="183.2" x2="261.8" y2="183.2" stroke="#1e293b" stroke-width="2"/>
<line x1="261.8" y1="183.2" x2="280.0" y2="183.2" stroke="#1e293b" stroke-width="2"/>
<line x1="280.0" y1="183.2" x2="298.2" y2="183.2" stroke="#1e293b" stroke-width="2"/>
<line x1="298.2" y1="183.2" x2="316.5" y2="183.2" stroke="#1e293b" stroke-width="2"/>
<line x1="316.5" y1="183.2" x2="334.7" y2="183.2" stroke="#1e293b" stroke-width="2"/>
<line x1="334.7" y1="183.2" x2="352.9" y2="183.2" stroke="#1e293b" stroke-width="2"/>
<line x1="352.9" y1="183.2" x2="371.2" y2="183.2" stroke="#1e293b" stroke-width="2"/>
<line x1="371.2" y1="183.2" x2="389.4" y2="183.2" stroke="#1e293b" stroke-width="2"/>
<line x1="389.4" y1="183.2" x2="407.7" y2="183.2" stroke="#1e293b" stroke-width="2"/>
<line x1="407.7" y1="183.2" x2="425.9" y2="183.2" stroke="#1e293b" stroke-width="2"/>
<line x1="425.9" y1="183.2" x2="444.1" y2="183.2" stroke="#1e293b" stroke-width="2"/>
<line x1="444.1" y1="183.2" x2="462.4" y2="183.2" stroke="#1e293b" stroke-width="2"/>
<line x1="462.4" y1="183.2" x2="480.6" y2="183.2" stroke="#1e293b" stroke-width="2"/>
<line x1="480.6" y1="183.2" x2="498.8" y2="183.2" stroke="#1e293b" stroke-width="2"/>
<line x1="498.8" y1="183.2" x2="517.1" y2="183.2" stroke="#1e293b" stroke-width="2"/>
<line x1="42.9" y1="179.8" x2="225.3" y2="183.2" stroke="#1e293b" stroke-width="2"/>
<line x1="61.2" y1="187.1" x2="225.3" y2="183.2" stroke="#1e293b" stroke-width="2"/>
<line x1="79.4" y1="179.8" x2="243.5" y2="183.2" stroke="#1e293b" stroke-width="2"/>
<line x1="97.6" y1="187.1" x2="261.8" y2="183.2" stroke="#1e293b" stroke-width="2"/>
<line x1="115.9" y1="179.8" x2="280.0" y2="183.2" stroke="#1e293b" stroke-width="2"/>
<line x1="134.1" y1="187.1" x2="298.2" y2="183.2" stroke="#1e293b" stroke-width="2"/>
<line x1="152.3" y1="179.8" x2="316.5" y2="183.2" stroke="#1e293b" stroke-width="2"/>
<line x1="170.6" y1="187.1" x2="334.7" y2="183.2" stroke="#1e293b" stroke-width="2"/>
<line x1="188.8" y1="179.8" x2="352.9" y2="183.2" stroke="#1e293b" stroke-width="2"/>
<line x1="207.1" y1="187.1" x2="371.2" y2="183.2" stroke="#1e293b" stroke-width="2"/>
<line x1="225.3" y1="179.8" x2="389.4" y2="183.2" stroke="#1e293b" stroke-width="2"/>
<line x1="243.5" y1="187.1" x2="407.7" y2="183.2" stroke="#1e293b" stroke-width="2"/>
<line x1="261.8" y1="179.8" x2="425.9" y2="183.2" stroke="#1e293b" stroke-width="2"/>
<line x1="280.0" y1="187.1" x2="444.1" y2="183.2" stroke="#1e293b" stroke-width="2"/>
<line x1="298.2" y1="179.8" x2="462.4" y2="183.2" stroke="#1e293b" stroke-width="2"/>
<line x1="316.5" y1="187.1" x2="480.6" y2="183.2" stroke="#1e293b" stroke-width="2"/>
<line x1="334.7" y1="179.8" x2="498.8" y2="183.2" stroke="#1e293b" stroke-width="2"/>
<line x1="352.9" y1="187.1" x2="517.1" y2="183.2" stroke="#1e293b" stroke-width="2"/>
<line x1="371.2" y1="179.8" x2="517.1" y2="183.2" stroke="#1e293b" stroke-width="2"/>
<circle cx="225.3" cy="183.2" r="5" fill="#22c55e"/>
<circle cx="243.5" cy="183.2" r="5" fill="#22c55e"/>
<circle cx="261.8" cy="183.2" r="5" fill="#22c55e"/>
<circle cx="280.0" cy="183.2" r="5" fill="#22c55e"/>
<circle cx="298.2" cy="183.2" r="5" fill="#22c55e"/>
<circle cx="316.5" cy="183.2" r="5" fill="#22c55e"/>
<circle cx="334.7" cy="183.2" r="5" fill="#22c55e"/>
<circle cx="352.9" cy="183.2" r="5" fill="#22c55e"/>
<circle cx="371.2" cy="183.2" r="5" fill="#22c55e"/>
<circle cx="389.4" cy="183.2" r="5" fill="#22c55e"/>
<circle cx="407.7" cy="183.2" r="5" fill="#22c55e"/>
<circle cx="425.9" cy="183.2" r="5" fill="#22c55e"/>
<circle cx="444.1" cy="183.2" r="5" fill="#22c55e"/>
<circle cx="462.4" cy="183.2" r="5" fill="#22c55e"/>
<circle cx="480.6" cy="183.2" r="5" fill="#22c55e"/>
<circle cx="498.8" cy="183.2" r="5" fill="#22c55e"/>
<circle cx="517.1" cy="183.2" r="5" fill="#22c55e"/>
<circle cx="42.9" cy="179.8" r="6" fill="#dc2626"/>
<circle cx="61.2" cy="187.1" r="4" fill="#2563eb"/>
<circle cx="79.4" cy="179.8" r="4" fill="#2563eb"/>
<circle cx="97.6" cy="187.1" r="4" fill="#2563eb"/>
<circle cx="115.9" cy="179.8" r="4" fill="#2563eb"/>
<circle cx="134.1" cy="187.1" r="4" fill="#2563eb"/>
<circle cx="152.3" cy="179.8" r="4" fill="#2563eb"/>
<circle cx="170.6" cy="187.1" r="4" fill="#2563eb"/>
<circle cx="188.8" cy="179.8" r="4" fill="#2563eb"/>
<circle cx="207.1" cy="187.1" r="4" fill="#2563eb"/>
<circle cx="225.3" cy="179.8" r="4" fill="#2563eb"/>
<circle cx="243.5" cy="187.1" r="4" fill="#2563eb"/>
<circle cx="261.8" cy="179.8" r="4" fill="#2563eb"/>
<circle cx="280.0" cy="187.1" r="4" fill="#2563eb"/>
<circle cx="298.2" cy="179.8" r="4" fill="#2563eb"/>
<circle cx="316.5" cy="187.1" r="4" fill="#2563eb"/>
<circle cx="334.7" cy="179.8" r="4" fill="#2563eb"/>
<circle cx="352.9" cy="187.1" r="4" fill="#2563eb"/>
<circle cx="371.2" cy="179.8" r="6" fill="#b91c1c"/>
<text x="10" y="212" font-size="10" font-family="monospace" fill="#334155">St=17  edges=35  tree=107.2km  total=107.2km  ok</text>
<text x="280" y="32" font-size="9" fill="#64748b">● start/end  ● intermediate  ● steiner  ─ tree</text>
</svg>