<svg xmlns="http://www.w3.org/2000/svg" width="520" height="220" viewBox="0 0 520 220">
<rect width="100%" height="100%" fill="#f8fafc"/>
<text x="10" y="18" font-size="12" font-family="sans-serif" font-weight="bold">S18 — St=18 (9 clusters x2 Steiner)</text>
<line x1="42.6" y1="182.8" x2="202.6" y2="185.1" stroke="#1e293b" stroke-width="2"/>
<line x1="42.6" y1="187.4" x2="202.6" y2="185.1" stroke="#1e293b" stroke-width="2"/>
<line x1="45.6" y1="182.8" x2="202.9" y2="185.1" stroke="#1e293b" stroke-width="2"/>
<line x1="45.6" y1="187.4" x2="202.9" y2="185.1" stroke="#1e293b" stroke-width="2"/>
<line x1="202.6" y1="185.1" x2="202.9" y2="185.1" stroke="#1e293b" stroke-width="2"/>
<line x1="81.9" y1="187.4" x2="241.9" y2="185.1" stroke="#1e293b" stroke-width="2"/>
<line x1="81.9" y1="182.8" x2="241.9" y2="185.1" stroke="#1e293b" stroke-width="2"/>
<line x1="84.9" y1="187.4" x2="242.2" y2="185.1" stroke="#1e293b" stroke-width="2"/>
<line x1="84.9" y1="182.8" x2="242.2" y2="185.1" stroke="#1e293b" stroke-width="2"/>
<line x1="241.9" y1="185.1" x2="242.2" y2="185.1" stroke="#1e293b" stroke-width="2"/>
<line x1="121.2" y1="182.8" x2="281.2" y2="185.1" stroke="#1e293b" stroke-width="2"/>
<line x1="121.2" y1="187.4" x2="281.2" y2="185.1" stroke="#1e293b" stroke-width="2"/>
<line x1="124.2" y1="182.8" x2="281.5" y2="185.1" stroke="#1e293b" stroke-width="2"/>
<line x1="124.2" y1="187.4" x2="281.5" y2="185.1" stroke="#1e293b" stroke-width="2"/>
<line x1="281.2" y1="185.1" x2="281.5" y2="185.1" stroke="#1e293b" stroke-width="2"/>
<line x1="160.5" y1="187.4" x2="320.6" y2="185.1" stroke="#1e293b" stroke-width="2"/>
<line x1="160.5" y1="182.8" x2="320.6" y2="185.1" stroke="#1e293b" stroke-width="2"/>
<line x1="163.5" y1="187.4" x2="320.9" y2="185.1" stroke="#1e293b" stroke-width="2"/>
<line x1="163.5" y1="182.8" x2="320.9" y2="185.1" stroke="#1e293b" stroke-width="2"/>
<line x1="320.6" y1="185.1" x2="320.9" y2="185.1" stroke="#1e293b" stroke-width="2"/>
<line x1="199.8" y1="182.8" x2="359.9" y2="185.1" stroke="#1e293b" stroke-width="2"/>
<line x1="199.8" y1="187.4" x2="359.9" y2="185.1" stroke="#1e293b" stroke-width="2"/>
<line x1="202.8" y1="182.8" x2="360.2" y2="185.1" stroke="#1e293b" stroke-width="2"/>
<line x1="202.8" y1="187.4" x2="360.2" y2="185.1" stroke="#1e293b" stroke-width="2"/>
<line x1="359.9" y1="185.1" x2="360.2" y2="185.1" stroke="#1e293b" stroke-width="2"/>
<line x1="239.1" y1="187.4" x2="399.2" y2="185.1" stroke="#1e293b" stroke-width="2"/>
<line x1="239.1" y1="182.8" x2="399.2" y2="185.1" stroke="#1e293b" stroke-width="2"/>
<line x1="242.1" y1="187.4" x2="399.5" y2="185.1" stroke="#1e293b" stroke-width="2"/>
<line x1="242.1" y1="182.8" x2="399.5" y2="185.1" stroke="#1e293b" stroke-width="2"/>
<line x1="399.2" y1="185.1" x2="399.5" y2="185.1" stroke="#1e293b" stroke-width="2"/>
<line x1="278.5" y1="182.8" x2="438.5" y2="185.1" stroke="#1e293b" stroke-width="2"/>
<line x1="278.5" y1="187.4" x2="438.5" y2="185.1" stroke="#1e293b" stroke-width="2"/>
<line x1="281.4" y1="182.8" x2="438.8" y2="185.1" stroke="#1e293b" stroke-width="2"/>
<line x1="281.4" y1="187.4" x2="438.8" y2="185.1" stroke="#1e293b" stroke-width="2"/>
<line x1="438.5" y1="185.1" x2="438.8" y2="185.1" stroke="#1e293b" stroke-width="2"/>
<line x1="317.8" y1="187.4" x2="477.8" y2="185.1" stroke="#1e293b" stroke-width="2"/>
<line x1="317.8" y1="182.8" x2="477.8" y2="185.1" stroke="#1e293b" stroke-width="2"/>
<line x1="320.7" y1="187.4" x2="478.1" y2="185.1" stroke="#1e293b" stroke-width="2"/>
<line x1="320.7" y1="182.8" x2="478.1" y2="185.1" stroke="#1e293b" stroke-width="2"/>
<line x1="477.8" y1="185.1" x2="478.1" y2="185.1" stroke="#1e293b" stroke-width="2"/>
<line x1="357.1" y1="182.8" x2="517.1" y2="185.1" stroke="#1e293b" stroke-width="2"/>
<line x1="357.1" y1="187.4" x2="517.1" y2="185.1" stroke="#1e293b" stroke-width="2"/>
<line x1="360.0" y1="182.8" x2="517.4" y2="185.1" stroke="#1e293b" stroke-width="2"/>
<line x1="360.0" y1="187.4" x2="517.4" y2="185.1" stroke="#1e293b" stroke-width="2"/>
<line x1="517.1" y1="185.1" x2="517.4" y2="185.1" stroke="#1e293b" stroke-width="2"/>
<line x1="202.6" y1="185.1" x2="241.9" y2="185.1" stroke="#1e293b" stroke-width="2"/>
<line x1="241.9" y1="185.1" x2="281.2" y2="185.1" stroke="#1e293b" stroke-width="2"/>
<line x1="281.2" y1="185.1" x2="320.6" y2="185.1" stroke="#1e293b" stroke-width="2"/>
<line x1="320.6" y1="185.1" x2="359.9" y2="185.1" stroke="#1e293b" stroke-width="2"/>
<line x1="359.9" y1="185.1" x2="399.2" y2="185.1" stroke="#1e293b" stroke-width="2"/>
<line x1="399.2" y1="185.1" x2="438.5" y2="185.1" stroke="#1e293b" stroke-width="2"/>
<line x1="438.5" y1="185.1" x2="477.8" y2="185.1" stroke="#1e293b" stroke-width="2"/>
<line x1="477.8" y1="185.1" x2="517.1" y2="185.1" stroke="#1e293b" stroke-width="2"/>
<circle cx="202.6" cy="185.1" r="5" fill="#22c55e"/>
<circle cx="202.9" cy="185.1" r="5" fill="#22c55e"/>
<circle cx="241.9" cy="185.1" r="5" fill="#22c55e"/>
<circle cx="242.2" cy="185.1" r="5" fill="#22c55e"/>
<circle cx="281.2" cy="185.1" r="5" fill="#22c55e"/>
<circle cx="281.5" cy="185.1" r="5" fill="#22c55e"/>
<circle cx="320.6" cy="185.1" r="5" fill="#22c55e"/>
<circle cx="320.9" cy="185.1" r="5" fill="#22c55e"/>
<circle cx="359.9" cy="185.1" r="5" fill="#22c55e"/>
<circle cx="360.2" cy="185.1" r="5" fill="#22c55e"/>
<circle cx="399.2" cy="185.1" r="5" fill="#22c55e"/>
<circle cx="399.5" cy="185.1" r="5" fill="#22c55e"/>
<circle cx="438.5" cy="185.1" r="5" fill="#22c55e"/>
<circle cx="438.8" cy="185.1" r="5" fill="#22c55e"/>
<circle cx="477.8" cy="185.1" r="5" fill="#22c55e"/>
<circle cx="478.1" cy="185.1" r="5" fill="#22c55e"/>
<circle cx="517.1" cy="185.1" r="5" fill="#22c55e"/>
<circle cx="517.4" cy="185.1" r="5" fill="#22c55e"/>
<circle cx="42.6" cy="182.8" r="6" fill="#dc2626"/>
<circle cx="45.6" cy="182.8" r="4" fill="#2563eb"/>
<circle cx="45.6" cy="187.4" r="4" fill="#2563eb"/>
<circle cx="42.6" cy="187.4" r="4" fill="#2563eb"/>
<circle cx="81.9" cy="187.4" r="4" fill="#2563eb"/>
<circle cx="84.9" cy="187.4" r="4" fill="#2563eb"/>
<circle cx="84.9" cy="182.8" r="4" fill="#2563eb"/>
<circle cx="81.9" cy="182.8" r="4" fill="#2563eb"/>
<circle cx="121.2" cy="182.8" r="4" fill="#2563eb"/>
<circle cx="124.2" cy="182.8" r="4" fill="#2563eb"/>
<circle cx="124.2" cy="187.4" r="4" fill="#2563eb"/>
<circle cx="121.2" cy="187.4" r="4" fill="#2563eb"/>
<circle cx="160.5" cy="187.4" r="4" fill="#2563eb"/>
<circle cx="163.5" cy="187.4" r="4" fill="#2563eb"/>
<circle cx="163.5" cy="182.8" r="4" fill="#2563eb"/>
<circle cx="160.5" cy="182.8" r="4" fill="#2563eb"/>
<circle cx="199.8" cy="182.8" r="4" fill="#2563eb"/>
<circle cx="202.8" cy="182.8" r="4" fill="#2563eb"/>
<circle cx="202.8" cy="187.4" r="4" fill="#2563eb"/>
<circle cx="199.8" cy="187.4" r="4" fill="#2563eb"/>
<circle cx="239.1" cy="187.4" r="4" fill="#2563eb"/>
<circle cx="242.1" cy="187.4" r="4" fill="#2563eb"/>
<circle cx="242.1" cy="182.8" r="4" fill="#2563eb"/>
<circle cx="239.1" cy="182.8" r="4" fill="#2563eb"/>
<circle cx="278.5" cy="182.8" r="4" fill="#2563eb"/>
<circle cx="281.4" cy="182.8" r="4" fill="#2563eb"/>
<circle cx="281.4" cy="187.4" r="4" fill="#2563eb"/>
<circle cx="278.5" cy="187.4" r="4" fill="#2563eb"/>
<circle cx="317.8" cy="187.4" r="4" fill="#2563eb"/>
<circle cx="320.7" cy="187.4" r="4" fill="#2563eb"/>
<circle cx="320.7" cy="182.8" r="4" fill="#2563eb"/>
<circle cx="317.8" cy="182.8" r="4" fill="#2563eb"/>
<circle cx="357.1" cy="182.8" r="4" fill="#2563eb"/>
<circle cx="360.0" cy="182.8" r="4" fill="#2563eb"/>
<circle cx="360.0" cy="187.4" r="4" fill="#2563eb"/>
<circle cx="357.1" cy="187.4" r="6" fill="#b91c1c"/>
<text x="10" y="212" font-size="10" font-family="monospace" fill="#334155">St=18  edges=53  tree=125.9km  total=125.9km  ok</text>
<text x="280" y="32" font-size="9" fill="#64748b">● start/end  ● intermediate  ● steiner  ─ tree</text>
</svg>