<svg xmlns="http://www.w3.org/2000/svg" width="520" height="220" viewBox="0 0 520 220">
<rect width="100%" height="100%" fill="#f8fafc"/>
<text x="10" y="18" font-size="12" font-family="sans-serif" font-weight="bold">S19 — St=19 chain (21 terminals)</text>
<line x1="222.7" y1="184.0" x2="239.1" y2="184.0" stroke="#1e293b" stroke-width="2"/>
<line x1="239.1" y1="184.0" x2="255.4" y2="184.0" stroke="#1e293b" stroke-width="2"/>
<line x1="255.4" y1="184.0" x2="271.8" y2="184.0" stroke="#1e293b" stroke-width="2"/>
<line x1="271.8" y1="184.0" x2="288.2" y2="184.0" stroke="#1e293b" stroke-width="2"/>
<line x1="288.2" y1="184.0" x2="304.6" y2="184.0" stroke="#1e293b" stroke-width="2"/>
<line x1="304.6" y1="184.0" x2="320.9" y2="184.0" stroke="#1e293b" stroke-width="2"/>
<line x1="320.9" y1="184.0" x2="337.3" y2="184.0" stroke="#1e293b" stroke-width="2"/>
<line x1="337.3" y1="184.0" x2="353.7" y2="184.0" stroke="#1e293b" stroke-width="2"/>
<line x1="353.7" y1="184.0" x2="370.0" y2="184.0" stroke="#1e293b" stroke-width="2"/>
<line x1="370.0" y1="184.0" x2="386.4" y2="184.0" stroke="#1e293b" stroke-width="2"/>
<line x1="386.4" y1="184.0" x2="402.8" y2="184.0" stroke="#1e293b" stroke-width="2"/>
<line x1="402.8" y1="184.0" x2="419.2" y2="184.0" stroke="#1e293b" stroke-width="2"/>
<line x1="419.2" y1="184.0" x2="435.5" y2="184.0" stroke="#1e293b" stroke-width="2"/>
<line x1="435.5" y1="184.0" x2="451.9" y2="184.0" stroke="#1e293b" stroke-width="2"/>
<line x1="451.9" y1="184.0" x2="468.3" y2="184.0" stroke="#1e293b" stroke-width="2"/>
<line x1="468.3" y1="184.0" x2="484.6" y2="184.0" stroke="#1e293b" stroke-width="2"/>
<line x1="484.6" y1="184.0" x2="501.0" y2="184.0" stroke="#1e293b" stroke-width="2"/>
<line x1="501.0" y1="184.0" x2="517.4" y2="184.0" stroke="#1e293b" stroke-width="2"/>
<line x1="42.6" y1="180.8" x2="222.7" y2="184.0" stroke="#1e293b" stroke-width="2"/>
<line x1="59.0" y1="187.4" x2="222.7" y2="184.0" stroke="#1e293b" stroke-width="2"/>
<line x1="75.4" y1="180.8" x2="239.1" y2="184.0" stroke="#1e293b" stroke-width="2"/>
<line x1="91.7" y1="187.4" x2="255.4" y2="184.0" stroke="#1e293b" stroke-width="2"/>
<line x1="108.1" y1="180.8" x2="271.8" y2="184.0" stroke="#1e293b" stroke-width="2"/>
<line x1="124.5" y1="187.4" x2="288.2" y2="184.0" stroke="#1e293b" stroke-width="2"/>
<line x1="140.8" y1="180.8" x2="304.6" y2="184.0" stroke="#1e293b" stroke-width="2"/>
<line x1="157.2" y1="187.4" x2="320.9" y2="184.0" stroke="#1e293b" stroke-width="2"/>
<line x1="173.6" y1="180.8" x2="337.3" y2="184.0" stroke="#1e293b" stroke-width="2"/>
<line x1="190.0" y1="187.4" x2="353.7" y2="184.0" stroke="#1e293b" stroke-width="2"/>
<line x1="206.3" y1="180.8" x2="370.0" y2="184.0" stroke="#1e293b" stroke-width="2"/>
<line x1="222.7" y1="187.4" x2="386.4" y2="184.0" stroke="#1e293b" stroke-width="2"/>
<line x1="239.1" y1="180.8" x2="402.8" y2="184.0" stroke="#1e293b" stroke-width="2"/>
<line x1="255.4" y1="187.4" x2="419.2" y2="184.0" stroke="#1e293b" stroke-width="2"/>
<line x1="271.8" y1="180.8" x2="435.5" y2="184.0" stroke="#1e293b" stroke-width="2"/>
<line x1="288.2" y1="187.4" x2="451.9" y2="184.0" stroke="#1e293b" stroke-width="2"/>
<line x1="304.6" y1="180.8" x2="468.3" y2="184.0" stroke="#1e293b" stroke-width="2"/>
<line x1="320.9" y1="187.4" x2="484.6" y2="184.0" stroke="#1e293b" stroke-width="2"/>
<line x1="337.3" y1="180.8" x2="501.0" y2="184.0" stroke="#1e293b" stroke-width="2"/>
<line x1="353.7" y1="187.4" x2="517.4" y2="184.0" stroke="#1e293b" stroke-width="2"/>
<line x1="370.0" y1="180.8" x2="517.4" y2="184.0" stroke="#1e293b" stroke-width="2"/>
<circle cx="222.7" cy="184.0" r="5" fill="#22c55e"/>
<circle cx="239.1" cy="184.0" r="5" fill="#22c55e"/>
<circle cx="255.4" cy="184.0" r="5" fill="#22c55e"/>
<circle cx="271.8" cy="184.0" r="5" fill="#22c55e"/>
<circle cx="288.2" cy="184.0" r="5" fill="#22c55e"/>
<circle cx="304.6" cy="184.0" r="5" fill="#22c55e"/>
<circle cx="320.9" cy="184.0" r="5" fill="#22c55e"/>
<circle cx="337.3" cy="184.0" r="5" fill="#22c55e"/>
<circle cx="353.7" cy="184.0" r="5" fill="#22c55e"/>
<circle cx="370.0" cy="184.0" r="5" fill="#22c55e"/>
<circle cx="386.4" cy="184.0" r="5" fill="#22c55e"/>
<circle cx="402.8" cy="184.0" r="5" fill="#22c55e"/>
<circle cx="419.2" cy="184.0" r="5" fill="#22c55e"/>
<circle cx="435.5" cy="184.0" r="5" fill="#22c55e"/>
<circle cx="451.9" cy="184.0" r="5" fill="#22c55e"/>
<circle cx="468.3" cy="184.0" r="5" fill="#22c55e"/>
<circle cx="484.6" cy="184.0" r="5" fill="#22c55e"/>
<circle cx="501.0" cy="184.0" r="5" fill="#22c55e"/>
<circle cx="517.4" cy="184.0" r="5" fill="#22c55e"/>
<circle cx="42.6" cy="180.8" r="6" fill="#dc2626"/>
<circle cx="59.0" cy="187.4" r="4" fill="#2563eb"/>
<circle cx="75.4" cy="180.8" r="4" fill="#2563eb"/>
<circle cx="91.7" cy="187.4" r="4" fill="#2563eb"/>
<circle cx="108.1" cy="180.8" r="4" fill="#2563eb"/>
<circle cx="124.5" cy="187.4" r="4" fill="#2563eb"/>
<circle cx="140.8" cy="180.8" r="4" fill="#2563eb"/>
<circle cx="157.2" cy="187.4" r="4" fill="#2563eb"/>
<circle cx="173.6" cy="180.8" r="4" fill="#2563eb"/>
<circle cx="190.0" cy="187.4" r="4" fill="#2563eb"/>
<circle cx="206.3" cy="180.8" r="4" fill="#2563eb"/>
<circle cx="222.7" cy="187.4" r="4" fill="#2563eb"/>
<circle cx="239.1" cy="180.8" r="4" fill="#2563eb"/>
<circle cx="255.4" cy="187.4" r="4" fill="#2563eb"/>
<circle cx="271.8" cy="180.8" r="4" fill="#2563eb"/>
<circle cx="288.2" cy="187.4" r="4" fill="#2563eb"/>
<circle cx="304.6" cy="180.8" r="4" fill="#2563eb"/>
<circle cx="320.9" cy="187.4" r="4" fill="#2563eb"/>
<circle cx="337.3" cy="180.8" r="4" fill="#2563eb"/>
<circle cx="353.7" cy="187.4" r="4" fill="#2563eb"/>
<circle cx="370.0" cy="180.8" r="6" fill="#b91c1c"/>
<text x="10" y="212" font-size="10" font-family="monospace" fill="#334155">St=19  edges=39  tree=119.2km  total=119.2km  ok</text>
<text x="280" y="32" font-size="9" fill="#64748b">● start/end  ● intermediate  ● steiner  ─ tree</text>
</svg>