<svg xmlns="http://www.w3.org/2000/svg" width="520" height="220" viewBox="0 0 520 220">
<rect width="100%" height="100%" fill="#f8fafc"/>
<text x="10" y="18" font-size="12" font-family="sans-serif" font-weight="bold">S20 — St=20 (10 clusters x2 Steiner)</text>
<line x1="42.3" y1="183.6" x2="202.3" y2="185.6" stroke="#1e293b" stroke-width="2"/>
<line x1="42.3" y1="187.7" x2="202.3" y2="185.6" stroke="#1e293b" stroke-width="2"/>
<line x1="45.0" y1="183.6" x2="202.6" y2="185.6" stroke="#1e293b" stroke-width="2"/>
<line x1="45.0" y1="187.7" x2="202.6" y2="185.6" stroke="#1e293b" stroke-width="2"/>
<line x1="202.3" y1="185.6" x2="202.6" y2="185.6" stroke="#1e293b" stroke-width="2"/>
<line x1="77.3" y1="187.7" x2="237.4" y2="185.6" stroke="#1e293b" stroke-width="2"/>
<line x1="77.3" y1="183.6" x2="237.4" y2="185.6" stroke="#1e293b" stroke-width="2"/>
<line x1="80.0" y1="187.7" x2="237.6" y2="185.6" stroke="#1e293b" stroke-width="2"/>
<line x1="80.0" y1="183.6" x2="237.6" y2="185.6" stroke="#1e293b" stroke-width="2"/>
<line x1="237.4" y1="185.6" x2="237.6" y2="185.6" stroke="#1e293b" stroke-width="2"/>
<line x1="112.3" y1="183.6" x2="272.4" y2="185.6" stroke="#1e293b" stroke-width="2"/>
<line x1="112.3" y1="187.7" x2="272.4" y2="185.6" stroke="#1e293b" stroke-width="2"/>
<line x1="115.0" y1="183.6" x2="272.6" y2="185.6" stroke="#1e293b" stroke-width="2"/>
<line x1="115.0" y1="187.7" x2="272.6" y2="185.6" stroke="#1e293b" stroke-width="2"/>
<line x1="272.4" y1="185.6" x2="272.6" y2="185.6" stroke="#1e293b" stroke-width="2"/>
<line x1="147.4" y1="187.7" x2="307.4" y2="185.6" stroke="#1e293b" stroke-width="2"/>
<line x1="147.4" y1="183.6" x2="307.4" y2="185.6" stroke="#1e293b" stroke-width="2"/>
<line x1="150.0" y1="187.7" x2="307.6" y2="185.6" stroke="#1e293b" stroke-width="2"/>
<line x1="150.0" y1="183.6" x2="307.6" y2="185.6" stroke="#1e293b" stroke-width="2"/>
<line x1="307.4" y1="185.6" x2="307.6" y2="185.6" stroke="#1e293b" stroke-width="2"/>
<line x1="182.4" y1="183.6" x2="342.4" y2="185.6" stroke="#1e293b" stroke-width="2"/>
<line x1="182.4" y1="187.7" x2="342.4" y2="185.6" stroke="#1e293b" stroke-width="2"/>
<line x1="185.0" y1="183.6" x2="342.6" y2="185.6" stroke="#1e293b" stroke-width="2"/>
<line x1="185.0" y1="187.7" x2="342.6" y2="185.6" stroke="#1e293b" stroke-width="2"/>
<line x1="342.4" y1="185.6" x2="342.6" y2="185.6" stroke="#1e293b" stroke-width="2"/>
<line x1="217.4" y1="187.7" x2="377.4" y2="185.6" stroke="#1e293b" stroke-width="2"/>
<line x1="217.4" y1="183.6" x2="377.4" y2="185.6" stroke="#1e293b" stroke-width="2"/>
<line x1="220.0" y1="187.7" x2="377.6" y2="185.6" stroke="#1e293b" stroke-width="2"/>
<line x1="220.0" y1="183.6" x2="377.6" y2="185.6" stroke="#1e293b" stroke-width="2"/>
<line x1="377.4" y1="185.6" x2="377.6" y2="185.6" stroke="#1e293b" stroke-width="2"/>
<line x1="252.4" y1="183.6" x2="412.4" y2="185.6" stroke="#1e293b" stroke-width="2"/>
<line x1="252.4" y1="187.7" x2="412.4" y2="185.6" stroke="#1e293b" stroke-width="2"/>
<line x1="255.0" y1="183.6" x2="412.6" y2="185.6" stroke="#1e293b" stroke-width="2"/>
<line x1="255.0" y1="187.7" x2="412.6" y2="185.6" stroke="#1e293b" stroke-width="2"/>
<line x1="412.4" y1="185.6" x2="412.6" y2="185.6" stroke="#1e293b" stroke-width="2"/>
<line x1="287.4" y1="187.7" x2="447.4" y2="185.6" stroke="#1e293b" stroke-width="2"/>
<line x1="287.4" y1="183.6" x2="447.4" y2="185.6" stroke="#1e293b" stroke-width="2"/>
<line x1="290.0" y1="187.7" x2="447.7" y2="185.6" stroke="#1e293b" stroke-width="2"/>
<line x1="290.0" y1="183.6" x2="447.7" y2="185.6" stroke="#1e293b" stroke-width="2"/>
<line x1="447.4" y1="185.6" x2="447.7" y2="185.6" stroke="#1e293b" stroke-width="2"/>
<line x1="322.4" y1="183.6" x2="482.4" y2="185.6" stroke="#1e293b" stroke-width="2"/>
<line x1="322.4" y1="187.7" x2="482.4" y2="185.6" stroke="#1e293b" stroke-width="2"/>
<line x1="325.0" y1="183.6" x2="482.7" y2="185.6" stroke="#1e293b" stroke-width="2"/>
<line x1="325.0" y1="187.7" x2="482.7" y2="185.6" stroke="#1e293b" stroke-width="2"/>
<line x1="482.4" y1="185.6" x2="482.7" y2="185.6" stroke="#1e293b" stroke-width="2"/>
<line x1="357.4" y1="187.7" x2="517.4" y2="185.6" stroke="#1e293b" stroke-width="2"/>
<line x1="357.4" y1="183.6" x2="517.4" y2="185.6" stroke="#1e293b" stroke-width="2"/>
<line x1="360.0" y1="187.7" x2="517.7" y2="185.6" stroke="#1e293b" stroke-width="2"/>
<line x1="360.0" y1="183.6" x2="517.7" y2="185.6" stroke="#1e293b" stroke-width="2"/>
<line x1="517.4" y1="185.6" x2="517.7" y2="185.6" stroke="#1e293b" stroke-width="2"/>
<line x1="202.3" y1="185.6" x2="237.4" y2="185.6" stroke="#1e293b" stroke-width="2"/>
<line x1="237.4" y1="185.6" x2="272.4" y2="185.6" stroke="#1e293b" stroke-width="2"/>
<line x1="272.4" y1="185.6" x2="307.4" y2="185.6" stroke="#1e293b" stroke-width="2"/>
<line x1="307.4" y1="185.6" x2="342.4" y2="185.6" stroke="#1e293b" stroke-width="2"/>
<line x1="342.4" y1="185.6" x2="377.4" y2="185.6" stroke="#1e293b" stroke-width="2"/>
<line x1="377.4" y1="185.6" x2="412.4" y2="185.6" stroke="#1e293b" stroke-width="2"/>
<line x1="412.4" y1="185.6" x2="447.4" y2="185.6" stroke="#1e293b" stroke-width="2"/>
<line x1="447.4" y1="185.6" x2="482.4" y2="185.6" stroke="#1e293b" stroke-width="2"/>
<line x1="482.4" y1="185.6" x2="517.4" y2="185.6" stroke="#1e293b" stroke-width="2"/>
<circle cx="202.3" cy="185.6" r="5" fill="#22c55e"/>
<circle cx="202.6" cy="185.6" r="5" fill="#22c55e"/>
<circle cx="237.4" cy="185.6" r="5" fill="#22c55e"/>
<circle cx="237.6" cy="185.6" r="5" fill="#22c55e"/>
<circle cx="272.4" cy="185.6" r="5" fill="#22c55e"/>
<circle cx="272.6" cy="185.6" r="5" fill="#22c55e"/>
<circle cx="307.4" cy="185.6" r="5" fill="#22c55e"/>
<circle cx="307.6" cy="185.6" r="5" fill="#22c55e"/>
<circle cx="342.4" cy="185.6" r="5" fill="#22c55e"/>
<circle cx="342.6" cy="185.6" r="5" fill="#22c55e"/>
<circle cx="377.4" cy="185.6" r="5" fill="#22c55e"/>
<circle cx="377.6" cy="185.6" r="5" fill="#22c55e"/>
<circle cx="412.4" cy="185.6" r="5" fill="#22c55e"/>
<circle cx="412.6" cy="185.6" r="5" fill="#22c55e"/>
<circle cx="447.4" cy="185.6" r="5" fill="#22c55e"/>
<circle cx="447.7" cy="185.6" r="5" fill="#22c55e"/>
<circle cx="482.4" cy="185.6" r="5" fill="#22c55e"/>
<circle cx="482.7" cy="185.6" r="5" fill="#22c55e"/>
<circle cx="517.4" cy="185.6" r="5" fill="#22c55e"/>
<circle cx="517.7" cy="185.6" r="5" fill="#22c55e"/>
<circle cx="42.3" cy="183.6" r="6" fill="#dc2626"/>
<circle cx="45.0" cy="183.6" r="4" fill="#2563eb"/>
<circle cx="45.0" cy="187.7" r="4" fill="#2563eb"/>
<circle cx="42.3" cy="187.7" r="4" fill="#2563eb"/>
<circle cx="77.3" cy="187.7" r="4" fill="#2563eb"/>
<circle cx="80.0" cy="187.7" r="4" fill="#2563eb"/>
<circle cx="80.0" cy="183.6" r="4" fill="#2563eb"/>
<circle cx="77.3" cy="183.6" r="4" fill="#2563eb"/>
<circle cx="112.3" cy="183.6" r="4" fill="#2563eb"/>
<circle cx="115.0" cy="183.6" r="4" fill="#2563eb"/>
<circle cx="115.0" cy="187.7" r="4" fill="#2563eb"/>
<circle cx="112.3" cy="187.7" r="4" fill="#2563eb"/>
<circle cx="147.4" cy="187.7" r="4" fill="#2563eb"/>
<circle cx="150.0" cy="187.7" r="4" fill="#2563eb"/>
<circle cx="150.0" cy="183.6" r="4" fill="#2563eb"/>
<circle cx="147.4" cy="183.6" r="4" fill="#2563eb"/>
<circle cx="182.4" cy="183.6" r="4" fill="#2563eb"/>
<circle cx="185.0" cy="183.6" r="4" fill="#2563eb"/>
<circle cx="185.0" cy="187.7" r="4" fill="#2563eb"/>
<circle cx="182.4" cy="187.7" r="4" fill="#2563eb"/>
<circle cx="217.4" cy="187.7" r="4" fill="#2563eb"/>
<circle cx="220.0" cy="187.7" r="4" fill="#2563eb"/>
<circle cx="220.0" cy="183.6" r="4" fill="#2563eb"/>
<circle cx="217.4" cy="183.6" r="4" fill="#2563eb"/>
<circle cx="252.4" cy="183.6" r="4" fill="#2563eb"/>
<circle cx="255.0" cy="183.6" r="4" fill="#2563eb"/>
<circle cx="255.0" cy="187.7" r="4" fill="#2563eb"/>
<circle cx="252.4" cy="187.7" r="4" fill="#2563eb"/>
<circle cx="287.4" cy="187.7" r="4" fill="#2563eb"/>
<circle cx="290.0" cy="187.7" r="4" fill="#2563eb"/>
<circle cx="290.0" cy="183.6" r="4" fill="#2563eb"/>
<circle cx="287.4" cy="183.6" r="4" fill="#2563eb"/>
<circle cx="322.4" cy="183.6" r="4" fill="#2563eb"/>
<circle cx="325.0" cy="183.6" r="4" fill="#2563eb"/>
<circle cx="325.0" cy="187.7" r="4" fill="#2563eb"/>
<circle cx="322.4" cy="187.7" r="4" fill="#2563eb"/>
<circle cx="357.4" cy="187.7" r="4" fill="#2563eb"/>
<circle cx="360.0" cy="187.7" r="4" fill="#2563eb"/>
<circle cx="360.0" cy="183.6" r="4" fill="#2563eb"/>
<circle cx="357.4" cy="183.6" r="6" fill="#b91c1c"/>
<text x="10" y="212" font-size="10" font-family="monospace" fill="#334155">St=20  edges=59  tree=141.2km  total=141.2km  ok</text>
<text x="280" y="32" font-size="9" fill="#64748b">● start/end  ● intermediate  ● steiner  ─ tree</text>
</svg>